<?xml version="1.0" encoding="UTF-8"?>
<!-- Created with Inkscape (http://www.inkscape.org/) -->
<svg width="210mm" height="297mm" version="1.1" viewBox="0 0 210 297" xml:space="preserve" xmlns="http://www.w3.org/2000/svg"><path d="m106.95 222.6-1.5055-0.82583-2.624-1.6743-9.787-5.6126-10.38-5.9219-0.72258-0.92579-0.0094-1.2515-0.0094-1.2515h-1.5026l-2.7978 1.4109-9.1939 5.2633-6.3098 3.6323h-1.5561l-7.2595-4.3422-13.643-7.7605-1.1781-1.1568 0.63129-1.0225 3.0854-1.7668 8.901-5.1533h1.7789l0.72872 0.47408 0.72872 0.47409 0.47957-0.18273 0.47957-0.18272-0.21538-1.1012-0.21538-1.1012 0.04956-31.067 0.04956-31.067 0.6524-0.61429 0.6524-0.61427 12.753-7.2586 2.076-1.2351 2.076-1.2351 2.6692-1.3318 0.90636-0.78778 2.1829-1.1914 2.1829-1.1914 1.8456 4e-3 0.8273 0.42846 0.8273 0.42847 0.3144-0.79838 0.3144-0.79837 0.14108-10.307 0.14108-10.307 0.10251-0.33151 0.10251-0.33152 3.5082-2.0073 3.5082-2.0072 8.6007-4.9905 1.7795-1.003 1.7795-1.003 2.6692-1.6883 1.6123-0.28813 0.35022 1.8717-0.183 14.053-1.8565 1.5541 0.24106 0.63483 0.24107 0.63483 0.87763 0.19139 0.87764 0.1914 2.8814 1.837 11.27 6.4666 5.9315 3.3606 5.635 3.2186 8.0076 4.6293 3.8555 2.1551 5.635 3.2361 10.084 5.7938 0.21789 0.31565 0.21789 0.31566v30.036l-0.21789 0.31596-0.21789 0.31594-0.519 0.19014-0.51902 0.19014v2.2641l0.81559 0.75969 0.81559 0.75971 1.6312 1.0204 1.6312 1.0204 9.787 5.5995 2.459 1.2376 0.95162 0.94486v26.479l-0.87704 0.33416-4.0165-2.32-8.3041-4.8585-1.038-0.97212-1.038-0.97213-1.3136-0.39154-1.6522 1.1657-13.049 7.4862-13.049 7.4899-11.566 6.6591-5.0418 2.9327-3.8555 2.1541-4.7033 2.8407-2.1179 0.25632zm3.8187-0.57109 0.94915-0.48145 5.0418-2.9612 4.7452-2.7508 6.5247-3.7178 4.1521-2.3706 4.4486-2.6494 5.9315-3.3517 5.635-3.2459 10.973-6.3254 3.114-1.7566 0.32545-0.52285 0.0597-7.5835 0.0597-7.5835 1.0025-0.192 6.8568 3.9939v4.5332l-0.37073 0.13899-0.37071 0.13901-1.5432-0.84543-1.5432-0.84544-0.088 4.9094-0.088 4.9094 2.076 1.3882 9.9084 5.8702 0.46151 0.17584 0.4615 0.17584-0.1546-25.529-2.7926-1.7751-4.2848-2.3558-1.0667-0.58894-1.0667-0.58895-5.9145-3.4888-2.5176-1.9957-0.47284 0.29016-7.0931-4.0795-0.14829 12.931-0.14828 12.932-0.1483 0.13201-0.14829 0.13201-33.217 19.022-10.572 6.087-1.2907-0.018-6.5247-3.75-0.0852-0.54628-0.0851-0.54629 9.0677-5.1525 34.699-19.898 0.0772-13.121 0.0772-13.121-22.101-12.573-3.6748-2.2153-0.0456 25.263 0.37734 0.32551 0.37732 0.3255 7.5738 4.3536 3.2513 1.847v-10.038l-2.3883-1.3427-0.15708-0.60121-0.15709-0.60123 0.0908-1.7517 0.0908-1.7517 1.0025-0.1894 6.8568 3.9939v16.058l-1.1122 0.70207-1.1122 0.70206-13.939 7.9694-22.54 12.92-14.071 8.0458h-0.90644v0.49086l4.3004 2.3591 4.4486 2.531 5.635 3.2492 2.3726 1.3937 2.3726 1.3937 2.3726 1.2755 3.5589 2.2888 1.6606 0.0362 0.94915-0.48144zm-45.762-9.1906 2.8175-1.6191 9.1939-5.2765 3.4376-1.6317-0.6659-0.22039 7.143-4.0788-0.1559-0.15479-0.1559-0.1548-22.059-12.686-0.07577-25.667-0.07576-25.667 1.6344-1.106 5.4148-3.059h0.95829l0.07579 25.345 0.0758 25.345 22.527 12.961 1.8157-0.85969 17.178-9.8434 6.7416-3.8568-0.81008-0.48438-21.314-12.283-7.9236 4.5816-1.7314 0.94512-1.7314 0.94511 8.6119 4.9088h0.47702l2.2028-1.2905 3.7626 1.9961v1.2355l-6.4525 3.6538-1.4068-0.01-13.049-7.542v-61.354l-0.19394 3e-5 -0.19394 2e-5 -3.7642 2.1121-0.77483 0.63783-5.4533 3.027-9.4904 5.4949-5.3384 3.0482-0.7327 1.4343-0.0088 60.42 1.6312 0.72436 11.418 6.5723v0.97097l-0.37072 0.2991-0.37072 0.29909-5.7781 3.3021h-1.2675l-3.1863-1.8101v-1.1248l3.0421-1.5306-5.2665-2.9556-0.29658-0.33847-0.29658-0.33848-1.4421-0.67485-1.4421-0.67486-2.97 1.7055-2.97 1.7055-6.4644 3.5337 0.02281 0.29447 0.02281 0.29448 13.76 7.7917 1.7795 1.111 5.3239 3.1706 0.4521 0.1801 0.4521 0.18011 0.88973-0.31516 2.8175-1.6191zm47.643-3.2589 3.5159-2.0355 12.169-6.9718 24.741-14.135 7e-3 -13.187 7e-3 -13.187 0.81287-0.30972 5.5635 3.344 0.74284 0.52205 0.74283 0.52205 0.012-2.7347 0.46788-0.96479-12.049-6.924-8.8973-5.1101-13.939-7.9943-17.201-9.8727-0.29657 9e-3 -0.29658 0.0103-8.8973 5.1407-1.8374 1.0538-1.8374 1.0538-0.09027 3.628-0.09027 3.628 0.24446-0.00118 2.573-1.4972 0.0042-1.2391 0.0042-1.2391 0.43579-0.64158 9.2405-5.3951h0.99143v14.673l-4.0038 2.2178-19.154 11.084h-1.1614l9e-3 -30.183 0.21789-0.31354 0.21789-0.31353 5.635-3.1752 17.12-9.8907h0.86397l14.64 8.4383 19.871 11.374 8.8973 5.1341 0.0837-3.5412 0.0837-3.5412-0.46392-0.44169-42.41-24.29-0.59316-0.37549-0.59314-0.3755-3.2624 1.9759-19.543 11.256-0.77218-0.29421v-6.1542l-0.18002-0.4658-0.18002-0.46579h-1.1415l-0.17071-0.44171-0.17071-0.44171h-1.1229v60.244l13.038 7.521 6.5184-3.6955-3.0009-1.7203-1.1261 0.62841-1.1261 0.62841h-0.71201l-9.4636-5.3983 0.1728-0.84138 6.2281-3.5295 5.441-3.1876h0.95765l11.989 6.8836 10.677 6.0965 0.1776 0.787-11.151 6.3598-15.259 8.7314-0.75579-0.0206-22.836-13.171-0.07579-25.208-0.07581-25.208-0.22078 0.0134-0.22078 0.0133-6.2281 3.6834-0.07582 25.095-0.07582 25.095 1.2621 0.74443 1.2621 0.74444 20.464 11.733 0.09078 0.42399 0.09077 0.42397-2.9877 1.5956-2.9877 1.5955 0.62312 0.55991 0.62312 0.55992-0.21499 2.2384 0.61057-0.1654 8.6007-5.0616 24.023-13.741 13.346-7.6544 6.2281-3.6064 0.0791-7.499 0.079-7.4989-6.0659-3.5262-0.46852-0.1964 2e-3 1.7178 2e-3 1.7178 2.368 1.3427v11.467h-0.87276l-5.9402-3.4398-5.94-3.4398v-26.656l0.56282-0.34538 26.574 15.223 0.0771 13.437 0.0772 13.437-0.37369 0.3283-0.37371 0.32831-13.643 7.807-27.878 15.957-0.81558 0.36627-0.81559 0.36627 5e-3 0.17358 5e-3 0.17359 6.3669 3.64 0.0858 0.0408 3.5159-2.0354zm-31.431-5.5227-0.19772-0.19631-0.19772 0.19631-0.19772 0.19632h0.79087zm0.69201-0.24539v-0.14724h-0.29658v0.29447h0.29658zm-17.17-2.0408 3.2922-1.8936-2.9211-1.4697-8.9569-5.2783 0.04351 0.92414 0.04351 0.92413-0.42383 1.1796 5.6284 3.1171v1.0504l-2.9658 1.3792 0.0013 0.17053 0.0013 0.17052 2.8151 1.6027 0.15018 0.016 3.2922-1.8936zm101.69-9.1491v-0.14724h-0.29657v0.29448h0.29657zm-0.29657-5.5214v-4.3435h1.0677l0.28175 0.24734 0.28175 0.24735 2.2243 1.3202v-3.4476l-6.0562-3.5206-0.23426-0.0982-0.23425-0.0982v13.505l1.2001 0.53171h1.4691zm-68.954-31.417 4.4486-2.5593 6.9696-4.0144v-12.879h-0.22899l-8.52 4.9278-0.08891 1.4917-0.08891 1.4917-3.2237 1.8065h-1.1953l-0.04692-1.0307 0.0421-3.6809 0.0421-3.6809 0.35216-0.33909 0.35215-0.3391 12.338-7.1253h1.432l5.5076 3.1493 12.16 6.9689 12.753 7.316 9.6387 5.5346 9.9353 5.6611 2.84 1.7765 0.17698-0.17573 0.177-0.17574-0.0553-14.512-0.0553-14.512-0.718-0.72236-8.89-5.1032-11.566-6.6008-2.9658-1.7114-2.9658-1.7114-9.663-5.4874-5.4624-3.179-8.6007-4.8764-2.6079-1.7627-1.2476 0.78076-10.38 5.9946-2.033 1.0378-0.78444-1.0652v-6.9935l0.28982-0.5377 0.28982-0.53769 3.3375-1.8702 0.82814 0.31554v3.5213l7.7385-4.4152 0.95952-0.36559-0.21893 0.41813-0.21894 0.41813 0.93371-1.1432v-14.218l-0.19721-0.19582-0.19723-0.19583-1.3598 0.77741-1.3598 0.7774-7.1178 4.1279-6.2281 3.636-6.1291 3.4329-0.52222 1.3638-0.08499 10.435-0.08499 10.435 0.42609-0.68112 0.16706 8.6254 21.938-12.601h1.2628l16.541 9.4804 9.4904 5.4504 12.16 6.9588 2.7613 1.598 2.7613 1.598 0.27865 0.7277 0.27864 0.7277-4e-3 3.1464-4e-3 3.1464-0.17882 0.66256-0.17883 0.66257h-0.83218l-9.6271-5.5346-22.836-13.111-11.162-6.3841-1.2941 0.67399-21.502 12.344v29.047l6.673-3.8572zm65.418 2.7554 0.0234-0.56441 0.15576 0.3865 0.15577 0.38649-0.17917 0.17791-0.17918 0.17791 0.0234-0.5644zm-0.0235 2.0858v-0.14722h-0.29658v0.29446h0.29658zm-77.209-43.631-0.19772-0.19632v0.78527l0.39544-0.39264zm16.693-13.995 4.5825-2.5941h0.45366l-0.63673-1.1043-0.63673-1.1043-0.0698-0.09785-0.0697-0.09785-5.6262 3.2877h-1.2451v-3.5337h-0.33925l-2.6265 1.5283v7.3736l1.6312-1.0635zm5.501-6.4222 0.1833-0.29448h-0.29657l-0.36659 0.58894h0.29658z" stroke-width=".29552"/></svg>
