<?xml version="1.0" encoding="UTF-8" standalone="no"?>
<!-- Created with Inkscape (http://www.inkscape.org/) -->

<svg
   width="210mm"
   height="297mm"
   viewBox="0 0 210 297"
   version="1.1"
   id="svg5"
   xml:space="preserve"
   inkscape:version="1.2.2 (732a01da63, 2022-12-09)"
   sodipodi:docname="Logo(T-lines).svg"
   xmlns:inkscape="http://www.inkscape.org/namespaces/inkscape"
   xmlns:sodipodi="http://sodipodi.sourceforge.net/DTD/sodipodi-0.dtd"
   xmlns="http://www.w3.org/2000/svg"
   xmlns:svg="http://www.w3.org/2000/svg"><sodipodi:namedview
     id="namedview7"
     pagecolor="#ffffff"
     bordercolor="#111111"
     borderopacity="1"
     inkscape:showpageshadow="0"
     inkscape:pageopacity="0"
     inkscape:pagecheckerboard="1"
     inkscape:deskcolor="#d1d1d1"
     inkscape:document-units="mm"
     showgrid="false"
     inkscape:zoom="0.73851712"
     inkscape:cx="197.01642"
     inkscape:cy="670.26206"
     inkscape:window-width="1920"
     inkscape:window-height="1009"
     inkscape:window-x="3832"
     inkscape:window-y="57"
     inkscape:window-maximized="1"
     inkscape:current-layer="layer1" /><defs
     id="defs2" /><g
     inkscape:label="Layer 1"
     inkscape:groupmode="layer"
     id="layer1"><path
       style="fill:#000000;stroke-width:0.264583"
       d="m 98.980512,207.12813 c -9.61747,-5.10325 -16.80222,-9.75704 -16.50571,-10.69127 0.18761,-0.59111 -0.41757,-0.28266 -7.48658,3.81574 -4.88564,2.83255 -4.57584,2.82342 -8.88842,0.26189 -1.91912,-1.13989 -5.06998,-2.95559 -7.00192,-4.0349 -4.46349,-2.49358 -4.49886,-2.66507 -0.95041,-4.60811 1.32888,-0.72765 3.20854,-1.78222 4.17704,-2.34347 1.66487,-0.96482 2.01406,-1.02826 3.13026,-0.56874 0.43861,0.18056 0.46302,-0.88224 0.46302,-20.16004 0,-15.86458 0.0729,-20.44967 0.33073,-20.79983 0.1819,-0.24704 2.35479,-1.61932 4.82865,-3.04952 2.47385,-1.43019 6.16479,-3.57213 8.20208,-4.75986 3.75943,-2.19172 4.26429,-2.37579 5.17677,-1.88745 0.38239,0.20465 0.5128,0.18793 0.51582,-0.0661 0.003,-0.23907 0.0802,-0.2222 0.26054,0.0568 0.14106,0.21828 0.28184,0.27781 0.31283,0.13229 0.031,-0.14552 0.12211,1.00097 0.20249,2.54777 l 0.14614,2.81236 7.01145,-4.06568 c 8.420288,-4.88259 5.00816,-5.51631 21.431248,3.9803 l 13.89063,8.03221 0.0751,2.80537 c 0.0668,2.49528 0.0253,2.80538 -0.37548,2.80538 -0.54833,0 -0.50329,0.0251 -15.47508,-8.63114 -6.63922,-3.83861 -12.17562,-6.97687 -12.30313,-6.97393 -0.1275,0.003 -3.386978,1.83603 -7.243288,4.07353 l -7.01145,4.06816 -0.0695,9.26077 -0.0695,9.26078 3.2445,-1.92034 c 1.78447,-1.05619 4.9709,-2.92269 7.08096,-4.14777 l 3.83645,-2.22743 0.073,-4.02715 c 0.0402,-2.21493 -0.006,-4.02715 -0.1024,-4.02715 -1.06678,0 -5.39459,3.11849 -5.39459,3.88718 0,0.69246 -0.18889,0.98459 -0.98746,1.52724 -1.78459,1.21266 -1.92296,1.06174 -1.92296,-2.09737 v -2.76837 l 2.84427,-1.68023 c 1.56435,-0.92413 3.53734,-2.07319 4.38441,-2.55347 l 1.540138,-0.87323 6.66195,3.83745 c 3.66407,2.1106 11.21474,6.46995 16.77926,9.68746 5.56454,3.2175 10.18116,5.85001 10.25917,5.85001 0.078,0 0.10912,-4.21542 0.0691,-9.3676 -0.04,-5.15218 0.0166,-9.31234 0.12573,-9.24481 0.10914,0.0675 0.22661,4.43179 0.26104,9.69833 l 0.0626,9.57553 0.0773,-9.26041 c 0.0924,-11.06808 0.27523,-10.07941 -2.11161,-11.42135 -1.06007,-0.596 -4.60632,-2.62902 -7.88053,-4.51783 -3.27422,-1.88881 -9.7987,-5.65145 -14.49885,-8.36144 -4.70014,-2.70998 -8.6292,-4.91507 -8.73125,-4.90021 -0.52326,0.0762 -0.85995,-0.0652 -0.71469,-0.30022 0.0899,-0.14552 0.0473,-0.26458 -0.0946,-0.26458 -0.14199,0 -0.29784,0.10116 -0.34635,0.22479 -0.11863,0.30237 -7.957228,4.80229 -8.365308,4.80229 -0.2329,0 -0.32128,-0.78602 -0.3198,-2.84427 l 0.002,-2.84427 1.04257,-0.59531 c 1.56749,-0.89509 1.86369,-0.8045 1.86369,0.57002 v 1.16533 l 2.77812,-1.59821 2.778128,-1.5982 v -4.7265 c 0,-2.59958 -0.0893,-4.72606 -0.198438,-4.72551 -0.10914,5.5e-4 -0.55562,0.2175 -0.99219,0.48212 -1.85927,1.127 -3.42414,1.97466 -3.22474,1.74679 0.72965,-0.83388 4.565258,-2.86118 4.956178,-2.61958 0.5225,0.32292 0.31368,10.38311 -0.22674,10.92352 -0.702638,0.70264 -1.031178,0.48457 12.12135,8.04557 4.43838,2.5515 9.97479,5.73786 12.30313,7.0808 2.32833,1.34294 5.57278,3.21294 7.20989,4.15555 2.6222,1.5098 2.97634,1.79782 2.97471,2.41935 -0.001,0.38803 0.0501,4.51551 0.1136,9.17218 0.12317,9.03159 0.0376,10.71563 -0.54458,10.71563 -1.88078,0 0.33464,1.85091 6.18752,5.16948 l 4.56407,2.58781 v 8.95365 c 0,6.68794 -0.0788,8.95364 -0.31127,8.95364 -0.28892,0 -8.46429,-4.80395 -9.58075,-5.62977 -0.4514,-0.33388 -1.02265,-0.0654 -5.95313,2.79796 -2.9996,1.74201 -6.94209,4.02905 -8.7611,5.08232 -1.81902,1.05327 -6.58463,3.81844 -10.59025,6.14483 -10.02598,5.8229 -9.35741,5.54548 -11.115798,4.61244 z m 16.227978,-8.87789 c 15.02915,-8.69643 15.50323,-8.95847 15.13787,-8.36731 -0.14518,0.23491 -0.11445,0.28731 0.0932,0.15898 0.17038,-0.1053 0.24442,-0.29722 0.16453,-0.42649 -0.0799,-0.12927 0.2099,-0.4187 0.644,-0.64318 0.94235,-0.48731 1.17638,-0.51335 0.92257,-0.10268 -0.11791,0.19078 -0.0725,0.23358 0.12099,0.11401 0.17038,-0.1053 0.24441,-0.29722 0.16452,-0.42648 -0.1626,-0.2631 1.36719,-1.13987 1.66575,-0.95469 0.10487,0.0651 0.15568,-2.09181 0.11292,-4.79301 -0.0942,-5.94855 -0.18096,-5.813 2.64453,-4.12966 l 2.19572,1.30815 0.0794,1.50998 c 0.0888,1.6899 -0.12443,1.84232 -1.5477,1.10632 l -0.78061,-0.40367 v 3.29865 3.29865 l 2.57376,1.51474 c 1.41557,0.83311 2.72002,1.51474 2.89878,1.51474 0.17876,0 0.27446,0.0818 0.21266,0.1818 -0.14623,0.2366 1.21944,0.89887 1.68354,0.81642 0.22054,-0.0392 0.28084,0.0602 0.15755,0.25969 -0.12764,0.20654 -0.0895,0.25503 0.10575,0.13437 0.35678,-0.2205 0.44873,-16.8263 0.0932,-16.8263 -0.29596,0 -8.42685,-4.66859 -9.42347,-5.41076 -0.4484,-0.33393 -0.93825,-0.5615 -1.08855,-0.50571 -0.1503,0.0558 -1.38366,-0.55472 -2.7408,-1.35668 -1.35714,-0.80196 -2.51409,-1.4581 -2.571,-1.4581 -0.0569,0 -0.10347,3.68925 -0.10347,8.19832 v 8.19833 l -0.99219,0.64255 c -2.9091,1.88394 -26.85022,15.50455 -27.25253,15.50455 -0.834318,0 -4.604938,-2.3688 -4.513788,-2.83568 0.0473,-0.24228 5.892348,-3.77586 13.708498,-8.28734 l 13.62605,-7.86496 v -8.39378 -8.39378 l -6.87917,-3.95842 c -3.78354,-2.17713 -7.38518,-4.25297 -8.00365,-4.61297 l -1.12448,-0.65455 v 8.03026 8.03027 l 2.71198,1.56132 c 1.49159,0.85873 3.09894,1.78627 3.57188,2.06119 l 0.85989,0.49987 v -3.14409 -3.14408 l -0.79375,-0.46889 c -0.7273,-0.42963 -0.79375,-0.58943 -0.79375,-1.90913 0,-1.82845 0.3041,-1.8588 2.95405,-0.29486 l 1.94075,1.14538 0.15584,4.6093 c 0.0857,2.53512 0.10619,4.90697 0.0455,5.27077 -0.0943,0.56536 -2.56751,2.07823 -17.02303,10.41305 -9.301988,5.36338 -16.912708,9.79143 -16.912708,9.84012 0,0.0487 0.13746,0.17347 0.30547,0.2773 0.20027,0.12378 0.23314,0.0718 0.0955,-0.151 -0.14086,-0.22791 -0.089,-0.29582 0.15755,-0.20624 0.20216,0.0735 0.33923,0.2632 0.30459,0.42167 -0.0346,0.15848 0.0878,0.23027 0.27218,0.15953 0.18433,-0.0707 0.56985,0.0592 0.85672,0.2887 0.5052,0.40421 0.50288,0.40825 -0.0737,0.12882 -0.91174,-0.44182 -0.70753,-0.0769 0.22756,0.40665 0.46685,0.24142 0.74043,0.29214 0.63233,0.11723 -0.10809,-0.1749 0.16549,-0.12418 0.63234,0.11723 0.45258,0.23404 0.82287,0.48903 0.82287,0.56664 0,0.0776 -0.13746,0.0562 -0.30546,-0.0477 -0.18497,-0.11432 -0.23381,-0.0729 -0.12382,0.10512 0.0999,0.16165 0.33008,0.23695 0.51149,0.16733 0.18142,-0.0696 0.56456,0.0635 0.85143,0.29576 0.28686,0.23228 0.37274,0.34695 0.19084,0.25481 -0.1819,-0.0921 -0.33073,-0.10403 -0.33073,-0.0264 0,0.0776 0.3703,0.3326 0.82287,0.56664 0.46685,0.24142 0.74044,0.29214 0.63234,0.11723 -0.10709,-0.17327 0.17364,-0.11997 0.64099,0.12171 0.45734,0.23649 0.76191,0.54262 0.67684,0.68028 -0.0851,0.13765 0.004,0.18949 0.19738,0.11518 0.19363,-0.0743 0.58677,0.0527 0.87363,0.28221 0.5052,0.40421 0.50289,0.40826 -0.0737,0.12882 -1.19996,-0.5815 -0.5523,-0.0217 0.85973,0.74305 0.80027,0.43345 1.38248,0.67068 1.29379,0.52719 -0.0887,-0.14349 0.20905,-0.0694 0.66163,0.16463 0.45258,0.23404 0.82287,0.48902 0.82287,0.56663 0,0.0776 -0.11906,0.0675 -0.26458,-0.0224 -0.14552,-0.0899 -0.26458,-0.10714 -0.26458,-0.0382 0,0.0689 0.5386,0.42631 1.19689,0.79424 0.65829,0.36793 1.1221,0.54793 1.03068,0.40001 -0.0914,-0.14793 0.31439,-0.0238 0.90182,0.27592 0.58742,0.29968 1.150528,0.67835 1.251348,0.84149 0.11034,0.17852 0.24915,0.19666 0.34868,0.0456 0.0909,-0.13808 6.68946,-4.02614 14.66336,-8.64014 z m -42.571108,2.22011 c 0.10495,0 0.10586,0.13746 0.002,0.30546 -0.1179,0.19078 -0.0725,0.23358 0.12099,0.11401 0.17038,-0.1053 0.24711,-0.29286 0.17051,-0.41681 -0.0766,-0.12394 0.50149,-0.59197 1.28466,-1.04005 1.52868,-0.87462 1.89721,-0.992 1.59884,-0.50923 -0.1179,0.19078 -0.0725,0.23358 0.12099,0.11401 0.17038,-0.1053 0.24442,-0.29722 0.16453,-0.42649 -0.0799,-0.12926 0.2099,-0.4187 0.644,-0.64317 0.94235,-0.48731 1.17638,-0.51336 0.92257,-0.10268 -0.11791,0.19077 -0.0725,0.23358 0.12099,0.11401 0.17037,-0.1053 0.24734,-0.29248 0.17103,-0.41596 -0.0763,-0.12347 1.77463,-1.32676 4.1132,-2.67396 2.82169,-1.62552 4.13515,-2.51888 3.90474,-2.65583 -0.19105,-0.1135 -3.38339,-1.96956 -7.09417,-4.12457 l -6.74688,-3.9182 v -16.38628 -16.38628 l 2.20527,-1.27087 c 1.21289,-0.69897 2.37375,-1.27086 2.57968,-1.27086 0.31875,0 0.37443,2.39432 0.37443,16.1001 v 16.1001 l 7.15596,4.15306 7.15596,4.15306 5.3456,-3.08308 c 2.94008,-1.6957 6.506458,-3.75252 7.925288,-4.57072 1.41883,-0.8182 2.57969,-1.55219 2.57969,-1.63108 0,-0.12677 -12.030608,-7.18825 -13.236418,-7.76923 -0.47009,-0.22651 -7.1365,3.32916 -7.1365,3.80639 0,0.75955 5.1552,3.12272 5.87919,2.69505 0.89323,-0.52764 3.11665,0.38247 3.11665,1.27574 0,0.39731 -3.87698,2.91263 -4.46639,2.89772 -0.0901,-0.002 -2.06882,-1.10874 -4.39715,-2.45879 l -4.23334,-2.45463 -0.13229,-19.63139 -0.13229,-19.63139 -1.45521,0.91531 c -0.80036,0.50342 -2.22911,1.33891 -3.175,1.85665 -0.94589,0.51774 -2.79135,1.59469 -4.10104,2.39323 -1.30969,0.79854 -3.47001,2.04682 -4.80071,2.77397 -1.71873,0.93918 -2.46387,1.49909 -2.57284,1.93325 -0.11057,0.44054 -0.25267,31.41076 -0.17402,37.92538 0.006,0.46197 0.83759,1.05327 4.24028,3.01349 4.91553,2.83174 4.87226,2.7438 2.12899,4.32611 -2.40911,1.38957 -2.61276,1.42186 -4.0112,0.6359 -1.23526,-0.69426 -1.28942,-1.08998 -0.23446,-1.71316 1.04464,-0.61709 1.02343,-0.67485 -0.5654,-1.5396 -0.74753,-0.40686 -1.55284,-0.9318 -1.78957,-1.16653 -1.29452,-1.28361 -1.72772,-1.22938 -4.75172,0.5949 -1.54835,0.93407 -3.24714,1.87783 -3.77507,2.09725 -1.12965,0.4695 -1.4479,0.86454 -0.87391,1.0848 0.22667,0.087 0.33886,0.27669 0.24932,0.42157 -0.0895,0.14489 -0.004,0.20263 0.18926,0.12833 0.19364,-0.0743 0.58677,0.0527 0.87364,0.28221 0.4981,0.39852 0.4918,0.40408 -0.13988,0.12353 -0.61872,-0.27479 -0.62902,-0.26773 -0.15946,0.10922 0.2761,0.22165 0.60002,0.34241 0.71983,0.26837 0.32827,-0.20289 1.86149,0.66556 1.68349,0.95356 -0.0851,0.13766 0.004,0.18949 0.19738,0.11519 0.19364,-0.0743 0.58677,0.0549 0.87364,0.28723 0.28687,0.23229 0.37275,0.34695 0.19085,0.25481 -0.57452,-0.29101 -0.35738,0.0954 0.23036,0.40996 0.42772,0.22891 0.51514,0.22592 0.36776,-0.0125 -0.11328,-0.18328 0.14743,-0.13661 0.62953,0.11268 0.45257,0.23404 0.82287,0.48619 0.82287,0.56033 0,0.0742 -0.23813,0.007 -0.52917,-0.14839 -0.29104,-0.15576 -0.52917,-0.22254 -0.52917,-0.14839 0,0.0741 0.3703,0.32628 0.82287,0.56032 0.60933,0.3151 0.77503,0.33403 0.6385,0.0729 -0.1014,-0.19392 0.0343,-0.0986 0.30161,0.21177 0.56334,0.65417 1.86286,1.40628 1.54712,0.8954 -0.11224,-0.18162 0.15543,-0.13247 0.63818,0.11716 0.45734,0.2365 0.76192,0.54263 0.67684,0.68029 -0.0851,0.13765 0.004,0.18949 0.19738,0.11518 0.19363,-0.0743 0.58677,0.0527 0.87364,0.28221 0.49809,0.39853 0.4918,0.40409 -0.13989,0.12354 -0.60946,-0.27069 -0.62304,-0.26286 -0.17272,0.0995 0.26881,0.21631 0.67529,0.32171 0.9033,0.23422 0.29585,-0.11353 0.35255,-0.0587 0.19799,0.19134 -0.14357,0.2323 -0.11431,0.28722 0.0868,0.16294 0.16685,-0.10313 0.50913,-0.0723 0.76063,0.0684 0.33703,0.18861 0.7437,0.088 1.54669,-0.38256 0.59919,-0.35115 1.1753,-0.63845 1.28024,-0.63845 z m 41.725518,-9.06772 13.44692,-7.73332 0.0102,-8.53281 c 0.0119,-9.92184 -0.27617,-9.25372 3.11909,-7.23387 l 2.18281,1.29855 v -0.87307 -0.87307 l -16.20573,-9.33131 c -8.91315,-5.13222 -16.29838,-9.38101 -16.41164,-9.44175 -0.11325,-0.0607 -1.988478,0.92176 -4.167178,2.18332 l -3.96128,2.29375 v 1.96592 1.96591 l 0.66146,-0.4334 c 0.48481,-0.31767 0.66145,-0.66704 0.66145,-1.3083 0,-0.83622 0.13249,-0.95183 2.9973,-2.61541 4.392528,-2.55071 4.146798,-2.73379 4.144778,3.08814 l -0.002,4.82865 -0.72593,0.42403 c -0.399348,0.23322 -3.285858,1.91001 -6.414558,3.72619 -3.1287,1.81618 -6.10526,3.55969 -6.61458,3.87446 -0.50932,0.31476 -1.19537,0.57274 -1.52454,0.57329 l -0.59849,0.001 0.0693,-9.98582 0.0693,-9.98582 3.96875,-2.30525 c 9.70931,-5.63967 11.002438,-6.34619 11.362438,-6.20804 0.20998,0.0806 3.75199,2.09875 7.87113,4.48483 10.12897,5.86738 17.94639,10.36619 18.66799,10.74315 0.5916,0.30905 0.59531,0.29885 0.59531,-1.63573 v -1.94672 l -2.3151,-1.3294 c -1.27331,-0.73118 -3.4462,-1.98523 -4.82865,-2.7868 -1.38245,-0.80156 -4.5376,-2.62487 -7.01145,-4.05179 -2.47386,-1.42692 -6.04573,-3.48727 -7.9375,-4.57854 -1.89178,-1.09127 -3.86684,-2.22531 -4.38904,-2.52008 l -0.94945,-0.53596 -7.205708,4.17108 c -8.18733,4.73923 -7.96101,4.68931 -7.96101,1.75621 0,-1.71247 -0.077,-2.12497 -0.39688,-2.12497 -0.21828,0 -0.39687,-0.17859 -0.39687,-0.39687 0,-0.21828 -0.11907,-0.39688 -0.26459,-0.39688 -0.17392,0 -0.26458,6.47715 -0.26458,18.90228 v 18.90227 l 2.47647,1.45748 c 1.36206,0.80162 3.17776,1.83578 4.0349,2.29814 l 1.55842,0.84067 1.52136,-0.88325 c 0.83674,-0.48579 1.52135,-0.97496 1.52135,-1.08705 0,-0.35835 -1.34792,-0.55928 -1.65979,-0.24741 -0.70796,0.70796 -7.33604,-2.59856 -7.33604,-3.65969 0,-0.47456 7.70812,-5.17239 8.18486,-4.98839 1.82534,0.70448 14.838498,8.6397 14.777488,9.01107 -0.0834,0.50754 -16.367018,9.9893 -17.155278,9.9893 -0.24928,0 -3.23543,-1.61756 -6.63588,-3.59458 -3.40046,-1.97701 -6.68774,-3.88649 -7.30507,-4.24328 l -1.12242,-0.6487 -0.0682,-15.83866 -0.0682,-15.83867 -1.64816,0.9658 -1.64817,0.9658 -0.005,15.89156 -0.005,15.89157 7.07761,4.08863 c 8.00334,4.62342 7.95767,4.57482 5.62239,5.98334 -1.40475,0.84728 -1.68525,1.37737 -1.06885,2.01987 0.11542,0.1203 7.48734,-3.98062 16.382058,-9.11316 l 16.1722,-9.33189 v -4.51795 -4.51795 l -1.64882,-0.92097 c -0.90685,-0.50653 -1.74029,-0.96066 -1.85208,-1.00916 -0.67931,-0.29475 -0.11318,1.31181 0.59049,1.67569 l 0.79375,0.41046 v 3.96196 c 0,4.80681 0.3571,4.66681 -4.59842,1.80272 -4.63038,-2.67619 -4.12405,-1.29328 -4.12878,-11.27667 -0.005,-9.99934 -0.26963,-9.38798 3.20201,-7.39031 1.36536,0.78567 5.04232,2.89317 8.17102,4.68334 3.1287,1.79017 5.8969,3.43468 6.15156,3.65446 0.42311,0.36515 0.46302,1.13378 0.46302,8.91654 0,7.78235 -0.0399,8.5515 -0.46302,8.91761 -0.25466,0.22037 -1.77271,1.14823 -3.37344,2.0619 -3.07783,1.75679 -7.21427,4.14137 -13.09687,7.5501 -1.96453,1.13837 -5.00009,2.88742 -6.74568,3.88679 -4.021028,2.30208 -3.893898,2.10627 -2.077678,3.20029 1.915788,1.154 -0.005,2.01333 15.728878,-7.03545 z m -42.454168,2.02529 c 1.97186,-1.10272 2.16383,-0.77926 -1.85688,-3.12875 -2.0461,-1.19563 -2.66214,-1.44895 -2.84022,-1.16791 -0.3518,0.55521 -0.34725,0.55989 1.61722,1.66484 2.05771,1.1574 2.27005,1.63997 1.04104,2.36596 -0.76073,0.44937 -0.78101,0.50101 -0.33073,0.84238 0.61905,0.46933 0.40728,0.52086 2.36957,-0.57652 z m 64.123648,-9.50233 c 0,-2.83484 0.17793,-3.10187 1.58281,-2.37538 l 0.83681,0.43274 -0.0853,-0.7276 c -0.0764,-0.6514 -2.37328,-2.42792 -3.19419,-2.47053 -0.10914,-0.006 -0.19843,1.7161 -0.19843,3.82615 0,3.66007 0.0243,3.83646 0.52916,3.83646 0.49216,0 0.52917,-0.17639 0.52917,-2.52184 z M 95.554272,130.5542 c 1.94851,-1.1106 2.90225,-1.8057 2.90427,-2.11666 0.004,-0.63463 -0.0869,-0.60949 -2.19677,0.60695 -2.15151,1.24044 -2.50099,1.20445 -2.61295,-0.26904 -0.0808,-1.06357 -0.0911,-1.0736 -0.67738,-0.66086 -0.55379,0.38986 -0.96714,4.09326 -0.45687,4.09326 0.0761,0 1.44401,-0.74414 3.0397,-1.65365 z m 4.956668,-11.62828 c -0.0481,-1.35343 -0.0877,-0.31766 -0.088,2.30172 -2.7e-4,2.61937 0.0391,3.72672 0.0875,2.46078 0.0484,-1.26595 0.0486,-3.40907 5.3e-4,-4.7625 z m -15.013978,5.49534 c 0,-0.0728 0.23813,-0.25974 0.52917,-0.4155 0.29104,-0.15576 0.52916,-0.22367 0.52916,-0.15091 0,0.0728 -0.23812,0.25974 -0.52916,0.4155 -0.29104,0.15576 -0.52917,0.22367 -0.52917,0.15091 z m 1.32292,-0.79878 c 0,-0.0728 0.35718,-0.317 0.79375,-0.54276 0.43656,-0.22575 0.79375,-0.35093 0.79375,-0.27817 0,0.0728 -0.35719,0.317 -0.79375,0.54276 -0.43657,0.22575 -0.79375,0.35093 -0.79375,0.27817 z m 3.70416,-2.11667 c 0,-0.0728 0.35719,-0.317 0.79375,-0.54275 0.43657,-0.22576 0.79375,-0.35094 0.79375,-0.27818 0,0.0728 -0.35718,0.317 -0.79375,0.54276 -0.43656,0.22575 -0.79375,0.35093 -0.79375,0.27817 z m 1.85209,-1.0533 c 0,-0.0728 0.23812,-0.25973 0.52916,-0.4155 0.29105,-0.15576 0.52917,-0.22367 0.52917,-0.15091 0,0.0728 -0.23812,0.25974 -0.52917,0.4155 -0.29104,0.15576 -0.52916,0.22367 -0.52916,0.15091 z m 1.32291,-0.79878 c 0,-0.0728 0.35719,-0.317 0.79375,-0.54276 0.43657,-0.22575 0.79375,-0.35093 0.79375,-0.27817 0,0.0728 -0.35718,0.317 -0.79375,0.54276 -0.43656,0.22575 -0.79375,0.35093 -0.79375,0.27817 z"
       id="path9069" /></g></svg>
