<?xml version="1.0" encoding="UTF-8" standalone="no"?>
<!-- Created with Inkscape (http://www.inkscape.org/) -->

<svg
   width="210mm"
   height="297mm"
   viewBox="0 0 210 297"
   version="1.1"
   id="svg5"
   xml:space="preserve"
   inkscape:version="1.2.2 (732a01da63, 2022-12-09)"
   sodipodi:docname="Logo(T1).svg"
   xmlns:inkscape="http://www.inkscape.org/namespaces/inkscape"
   xmlns:sodipodi="http://sodipodi.sourceforge.net/DTD/sodipodi-0.dtd"
   xmlns="http://www.w3.org/2000/svg"
   xmlns:svg="http://www.w3.org/2000/svg"><sodipodi:namedview
     id="namedview7"
     pagecolor="#ffffff"
     bordercolor="#111111"
     borderopacity="1"
     inkscape:showpageshadow="0"
     inkscape:pageopacity="0"
     inkscape:pagecheckerboard="1"
     inkscape:deskcolor="#d1d1d1"
     inkscape:document-units="mm"
     showgrid="false"
     inkscape:zoom="0.73851712"
     inkscape:cx="197.01642"
     inkscape:cy="670.26206"
     inkscape:window-width="1920"
     inkscape:window-height="1009"
     inkscape:window-x="3832"
     inkscape:window-y="57"
     inkscape:window-maximized="1"
     inkscape:current-layer="layer1" /><defs
     id="defs2" /><g
     inkscape:label="Layer 1"
     inkscape:groupmode="layer"
     id="layer1"><path
       style="fill:#d0d1d3;stroke-width:0.387301"
       d="m 120.6131,246.51967 h -1.28332 l -4.10774,-2.34977 -4.10774,-2.34978 -5.08817,-2.89623 -5.08816,-2.89623 -2.544087,-1.39237 -2.544083,-1.39238 -1.522359,-1.0266 -1.522355,-1.02658 h -0.837289 -0.83729 l -3.625708,2.10786 -3.625709,2.10787 h -0.129142 -0.129143 l -3.633176,2.13452 -3.633174,2.13452 -0.820051,-0.20396 -0.820056,-0.20396 -5.479562,-3.19502 -5.479563,-3.19502 -4.794617,-2.6512 -4.794615,-2.6512 v -0.59486 -0.59485 l 2.446232,-1.28601 2.446233,-1.28601 3.608296,-2.10532 3.608292,-2.1053 1.088476,0.17965 1.088471,0.17966 0.443062,0.15302 0.443066,0.15302 0.264103,-29.51015 0.264104,-29.51013 0.176492,-0.57488 0.176489,-0.57486 4.204507,-2.26877 4.204506,-2.26877 7.595434,-4.38592 7.595431,-4.38593 1.993802,-0.66312 1.993801,-0.66311 0.195699,-9.41818 0.195698,-9.41816 0.195699,-0.17337 0.195699,-0.17335 2.739777,-1.51106 2.73978,-1.51105 7.91503,-4.51416 7.91504,-4.51417 0.48663,0.15883 0.48663,0.15884 -0.0982,6.8709 -0.0982,6.87091 -0.21876,1.5791 -0.21876,1.57911 2.87447,1.7353 2.87445,1.7353 3.91398,2.20255 3.91397,2.20256 10.37203,5.84216 10.37203,5.84214 8.41504,4.76228 8.41504,4.76225 v 16.07151 16.0715 l 0.7828,0.64277 0.78278,0.64279 6.74833,3.76457 6.74832,3.76459 0.003,12.74301 0.003,12.74302 h -0.39558 -0.39557 l -3.42055,-2.0473 -3.42055,-2.04731 -3.77163,-2.17973 -3.77165,-2.17973 -12.66704,7.17366 -12.66674,7.17366 -6.84946,3.88402 -6.84944,3.88403 -5.17665,2.94219 -5.17666,2.94219 z"
       id="path8985" /><path
       style="fill:#29b1e4;stroke-width:0.387301"
       d="m 120.40443,246.12073 -1.46219,-0.0158 -1.95698,-1.26658 -1.95699,-1.26659 -5.67526,-3.19212 -5.67526,-3.19212 -4.109676,-2.34431 -4.109671,-2.34432 -0.437151,-1.30831 -0.437156,-1.30832 -0.446107,-0.14561 -0.446108,-0.14561 -3.617805,1.89584 -3.617811,1.89584 -5.015216,2.92756 -5.015212,2.92756 h -0.531196 -0.531197 l -3.064327,-1.84426 -3.064333,-1.84425 -6.458055,-3.58198 -6.458055,-3.58198 -0.904945,-0.53854 -0.904945,-0.53855 0.139734,-0.41049 0.139735,-0.4105 2.72219,-1.40739 2.722189,-1.40739 2.70191,-1.63875 2.701909,-1.63873 0.878013,-0.32687 0.878019,-0.32686 0.725443,0.53811 0.725447,0.53812 0.587096,0.013 0.587096,0.013 -0.105918,-9.86888 -0.105918,-9.86889 0.301611,-20.24303 0.301611,-20.24303 8.806439,-4.98079 8.806439,-4.9808 3.261455,-1.90686 3.261455,-1.90687 1.82671,0.11168 1.826709,0.11167 0.195699,4.09185 0.1957,4.09185 10.753543,-6.08275 10.75354,-6.08274 1.96687,1.10473 1.96687,1.10473 18.59136,10.51063 18.59137,10.51063 0.11199,3.69342 0.11198,3.69344 h -0.36335 -0.36334 l -20.09925,-11.36971 -20.09925,-11.3697 h -0.42533 -0.42534 l -10.63372,6.04466 -10.633731,6.04468 v 13.75649 13.75651 l 0.293547,-0.0145 0.293549,-0.0145 10.567725,-6.0416 10.56772,-6.0416 0.10755,-6.44436 0.10754,-6.44435 -0.69462,0.25753 -0.69462,0.25753 -3.8091,2.18241 -3.80909,2.1824 -0.0101,1.34137 -0.0101,1.34138 -1.54227,0.86231 -1.54227,0.86231 h -0.23002 -0.23018 l 0.11203,-3.71843 0.11202,-3.71843 5.87096,-3.36962 5.87096,-3.36962 0.7828,0.11849 0.7828,0.11849 24.65803,13.92305 24.65803,13.92306 0.19242,0.16529 0.19245,0.1653 -0.68168,0.37355 -0.68169,0.37355 v 0.77265 0.77264 l 0.39302,0.71908 0.39302,0.71908 3.42309,2.06099 3.42311,2.061 4.58801,2.4644 4.58801,2.46441 0.0104,12.40077 0.0104,12.40077 -0.58465,-0.21968 -0.58466,-0.2197 -5.57985,-3.29595 -5.57985,-3.29597 -1.32986,-0.93266 -1.32984,-0.93268 -0.43144,0.3437 -0.43145,0.34369 -4.69677,2.67013 -4.69676,2.67012 -8.80643,4.98286 -8.80645,4.98288 -10.86683,6.18345 -10.86682,6.18347 -1.46218,-0.0156 z m 50.68988,-61.59153 -0.12692,3.9283 v -7.8566 -7.85658 l 0.12692,3.9283 0.12678,3.92828 z m -0.001,-14.92916 -0.13476,2.76102 0.001,-5.74873 0.001,-5.74873 0.13373,2.98771 0.13372,2.98768 -0.13476,2.76105 z m -61.05479,-31.57491 -2.25053,1.24119 0.003,-3.7648 0.003,-3.76481 1.54227,-0.8623 1.54227,-0.86231 h 0.216 0.21601 v 1.89878 1.89879 l 3.42473,-1.9376 3.42472,-1.9376 1.17419,-0.58482 1.17419,-0.58482 -0.87482,0.92972 -0.87485,0.92972 0.62122,0.86844 0.6212,0.86845 -0.13772,0.13138 -0.13772,0.13138 -3.71828,2.08001 -3.71828,2.08001 -2.25053,1.24118 z m 10.5658,-12.89945 -0.12914,3.54505 v -7.0901 -7.0901 l 0.12914,3.54505 0.12914,3.54505 z"
       id="path8983" /><path
       style="fill:#031b25;stroke-width:0.387301"
       d="m 119.35674,246.13643 h -0.17261 l -0.27926,-0.44248 -0.27928,-0.44245 0.45187,0.27346 0.45188,0.27345 v 0.16901 0.16901 z m 1.9665,-0.003 -0.35878,0.003 0.16308,-0.12906 0.16308,-0.12906 2.25054,-1.24047 2.25053,-1.24047 v 0.21199 0.212 l -2.05483,1.15391 -2.05483,1.1539 -0.35879,0.003 z m -3.16379,-0.76304 h -0.19571 v -0.19162 -0.19162 h 0.19571 0.1957 v 0.19162 0.19162 z m -0.7828,-0.38324 h -0.19569 v -0.19164 -0.19162 h 0.19569 0.1957 v 0.19162 0.19164 z m -0.7828,-0.38326 h -0.19569 v -0.19162 -0.19163 h 0.19569 0.1957 v 0.19163 0.19162 z m 10.46989,-1.5721 -0.88066,0.44932 v -0.17157 -0.17156 l 3.22904,-1.80951 3.22903,-1.80949 0.29355,-0.1629 0.29353,-0.1629 v 0.17056 0.17056 l -2.64192,1.52408 -2.64193,1.52407 z m -50.196709,-4.17663 -0.782793,0.41021 v -0.19162 -0.19162 l 0.782793,-0.41021 0.782795,-0.41022 v 0.19162 0.19162 z m 57.437559,0.0497 -0.68495,0.36051 v -0.17311 -0.17311 l 4.59891,-2.5687 4.59893,-2.56871 1.36989,-0.78223 1.36989,-0.78225 -0.3914,0.41615 -0.3914,0.41616 -4.89247,2.74738 -4.89246,2.7474 z m -59.371445,-0.0497 h -0.3683 l -0.239124,-0.37886 -0.239129,-0.37885 0.607425,0.22823 0.607426,0.22824 v 0.15062 0.15062 z m -1.39299,-0.76649 h -0.195699 v -0.19163 -0.19163 h 0.195699 0.195699 v 0.19163 0.19163 z m 5.283863,-0.38326 -0.782795,0.41022 v -0.19162 -0.19162 l 0.782795,-0.41022 0.782795,-0.41021 v 0.19162 0.19162 z m 1.369891,-0.76648 H 79.99821 v -0.19164 -0.19162 h 0.195699 0.195698 v 0.19162 0.19164 z m 1.36989,-0.76651 -0.782794,0.41022 v -0.19162 -0.19162 l 0.782794,-0.41022 0.782795,-0.41023 v 0.19162 0.19164 z m 38.840631,-0.39016 -0.288,-0.007 -3.10182,-1.76961 -3.1018,-1.76962 0.6088,-0.42713 0.6088,-0.42713 20.00804,-11.30031 20.00804,-11.30029 -0.001,-12.26949 -0.001,-12.26949 -10.8591,-6.1019 -10.85908,-6.1019 -1.66344,-0.92881 -1.66344,-0.92881 v 12.23576 12.23574 l 5.48444,3.13061 5.48443,3.13062 h 0.19083 0.19081 v -5.10909 -5.1091 l -0.97848,-0.51277 -0.97849,-0.51277 v -1.85148 -1.85149 h 0.1818 0.18182 l 2.94937,1.75332 2.94936,1.75332 -0.0133,7.15721 -0.0133,7.15722 -24.98399,14.08437 -24.983981,14.08439 H 95.511258 95.26276 v -1.14974 -1.14975 l -1.076344,0.004 -1.076342,0.004 -1.719514,0.96247 -1.719514,0.96248 -0.124142,-0.12153 -0.124158,-0.12152 4.711856,-2.66597 4.711857,-2.66594 0.823761,-0.61596 0.82377,-0.61596 -0.952179,-0.5814 -0.952172,-0.58136 -9.687083,-5.4882 -9.687083,-5.48818 v -23.41903 -23.41903 l 2.888551,-1.60925 2.888551,-1.60924 h 0.438326 0.438326 v 23.14826 23.14829 l 10.512825,5.9786 10.512828,5.97864 h 0.4977 0.49771 l 12.08191,-6.79116 12.0819,-6.79114 -0.006,-0.20314 -0.006,-0.20315 -6.54987,-3.69775 -6.54987,-3.69776 -4.13679,-2.3486 -4.13678,-2.34858 -5.5503,3.15383 -5.550297,3.15383 v 0.25345 0.25344 l 4.174717,2.35164 4.17471,2.35164 h 0.43497 0.43496 l 0.86165,-0.59096 0.86165,-0.59096 1.57081,0.8784 1.57081,0.87838 0.003,0.21119 0.003,0.21118 -2.88855,1.60925 -2.88855,1.60924 -0.53618,-0.0187 -0.53617,-0.0187 -5.87096,-3.36142 -5.870962,-3.3614 -0.10037,-28.47142 -0.10037,-28.47143 0.687461,0.26041 0.687467,0.26041 1.06316,0.21012 1.063164,0.2101 0.111022,3.79264 0.111036,3.79263 10.545692,-5.96274 10.5457,-5.96276 0.62595,0.11269 0.62594,0.11269 20.23798,11.43651 20.238,11.43649 v 3.64701 3.64702 l -0.58857,-0.22116 -0.58857,-0.22114 -19.07914,-10.80287 -19.07916,-10.80288 -0.98571,-0.56633 -0.98573,-0.56632 -9.9734,5.65869 -9.97339,5.6587 -0.880647,0.53401 -0.880643,0.534 v 13.82912 13.82912 l 0.682722,-0.25653 0.682718,-0.25654 10.26631,-5.82063 10.26603,-5.82065 0.0104,-6.65513 0.0104,-6.65511 -0.88064,0.55044 -0.88064,0.55045 -3.62043,2.03239 -3.62041,2.03239 v 1.29936 1.29937 l -1.27204,0.75942 -1.27204,0.75943 -0.50394,0.001 -0.50393,0.001 0.11253,-3.48823 0.11254,-3.48823 6.00278,-3.41024 6.00278,-3.41025 h 0.36032 0.36034 l 24.85386,14.04155 24.85386,14.04152 -0.43787,0.51664 -0.43789,0.51662 0.16056,1.34666 0.16055,1.34665 h -0.1559 -0.1559 l -3.65771,-2.10787 -3.65773,-2.10787 h -0.21745 -0.21746 v 12.02541 12.0254 l -0.48925,0.39288 -0.48925,0.39289 -20.06466,11.34312 -20.06466,11.34312 -0.28799,-0.007 z m -37.47074,-0.37634 h -0.1957 v -0.19162 -0.19162 h 0.1957 0.195699 v 0.19162 0.19162 z m 0.736598,-0.38324 h -0.195699 l 0.241896,-0.38325 0.241894,-0.38325 h 0.195699 0.195698 l -0.241895,0.38325 -0.241894,0.38325 z m 1.220388,-0.7665 h -0.195699 v -0.19163 -0.19162 h 0.195699 0.195698 v 0.19162 0.19163 z m 1.519392,-0.76649 H 86.21437 l 0.241895,-0.38326 0.241896,-0.38324 h 0.195698 0.195699 l -0.241896,0.38324 -0.241895,0.38326 z m 1.807485,-1.14975 -0.782795,0.41022 v -0.19162 -0.19164 l 0.782795,-0.41021 0.782795,-0.41022 v 0.19162 0.19162 z m 57.731097,0 h -0.1957 v -0.19163 -0.19162 h 0.1957 0.1957 v 0.19162 0.19163 z m 1.5656,-0.88513 -1.17419,0.58945 0.39139,-0.3657 0.39139,-0.3657 1.5656,-0.8608 1.56558,-0.8608 -0.7828,0.63705 -0.78278,0.63705 z m 3.22902,-1.80613 -0.29355,0.009 v -0.18179 -0.18177 l 1.27205,-0.60779 1.27203,-0.60778 -0.9785,0.78105 -0.97848,0.78104 -0.29355,0.009 z m -94.033199,-1.1418 h -0.195698 v -0.19162 -0.19162 h 0.195698 0.195699 v 0.19162 0.19162 z m 19.089609,-0.001 -0.302538,-10e-4 -1.521698,-0.90196 -1.521698,-0.90193 1.619546,-0.89129 1.619547,-0.89128 -0.0041,-0.21687 -0.0041,-0.21687 -2.945077,-1.64361 -2.945073,-1.64361 0.286101,-0.45329 0.286103,-0.45328 -0.08287,-1.06491 -0.08287,-1.06489 h 0.217589 0.21759 l 5.757438,3.2978 5.757435,3.29781 0.105696,0.0953 0.105696,0.0953 -3.130036,1.78081 -3.13003,1.78082 -0.302543,-0.001 z m 77.58553,-0.38133 h -0.19571 v -0.19162 -0.19162 h 0.19571 0.19569 v 0.19162 0.19162 z m 1.36989,-0.7665 -0.7828,0.41022 v -0.19163 -0.19162 l 0.7828,-0.41021 0.78278,-0.41022 v 0.19162 0.19163 z m 2.34838,-1.34137 -1.17419,0.59455 v -0.19162 -0.19162 l 1.17419,-0.59455 1.17419,-0.59457 v 0.19163 0.19163 z m 2.34838,-1.34136 -0.7828,0.41021 v -0.19162 -0.19162 l 0.7828,-0.41022 0.78279,-0.41023 v 0.19162 0.19164 z m 2.34839,-1.34137 -1.1742,0.59455 v -0.19162 -0.19163 l 1.1742,-0.59456 1.17419,-0.59455 v 0.19162 0.19162 z m 2.34838,-1.34137 -0.7828,0.41021 v -0.19162 -0.19163 l 0.7828,-0.41022 0.78278,-0.41021 v 0.19162 0.19162 z m 1.36989,-0.7665 h -0.1957 v -0.19162 -0.19163 h 0.1957 0.19569 v 0.19163 0.19162 z m 1.36989,-0.7665 -0.7828,0.41021 v -0.19162 -0.19162 l 0.7828,-0.41022 0.7828,-0.41021 v 0.19162 0.19162 z m 1.36988,-0.76649 h -0.19569 v -0.19164 -0.19162 h 0.19569 0.1957 v 0.19162 0.19164 z m 1.36989,-0.7665 -0.78278,0.41021 v -0.19162 -0.19162 l 0.78278,-0.41023 0.7828,-0.41022 v 0.19163 0.19163 z m 4.21922,-4.6948 -0.10947,4.88642 -0.29803,-0.44957 -0.29803,-0.44959 -1.16971,-0.25156 -1.16971,-0.25156 v -6.86803 -6.86801 l 0.48925,0.0281 0.48924,0.0281 2.73979,1.61491 2.73978,1.61488 0.11923,1.80622 0.11923,1.80622 -0.31498,-0.003 -0.31499,-0.003 -1.17419,-0.76145 -1.17419,-0.76144 -0.28187,-0.003 -0.28185,-0.003 -0.10947,4.88642 z m -2.77611,-27.20618 -0.1781,0.66622 0.007,-1.533 0.007,-1.53299 0.17021,0.86678 0.17022,0.86676 -0.17811,0.66623 z m -0.0324,-5.37793 -0.23647,0.23154 0.0309,-0.73456 0.0309,-0.73456 0.20556,0.50302 0.20556,0.503 -0.23646,0.23156 z m -62.90137,-42.82052 h -0.35011 v -3.45487 -3.45487 l 1.27204,-0.75943 1.27204,-0.75943 0.4678,-0.002 0.4678,-0.002 0.11929,1.71831 0.11929,1.71831 4.04737,-2.32225 4.04737,-2.32225 0.21618,0.21167 0.21617,0.21167 -0.64311,0.24165 -0.64312,0.24165 v 0.70288 0.70288 l 0.39139,0.23686 0.39141,0.23685 v 0.33022 0.3302 l -5.52085,3.09641 -5.52086,3.09641 h -0.3501 z"
       id="path8981" /></g></svg>
