<?xml version="1.0" encoding="UTF-8"?>
<!DOCTYPE svg PUBLIC "-//W3C//DTD SVG 20010904//EN"
 "http://www.w3.org/TR/2001/REC-SVG-20010904/DTD/svg10.dtd">

<svg width="210mm" height="297mm" version="1.1" viewBox="0 0 210 297" xml:space="preserve" xmlns="http://www.w3.org/2000/svg"><g stroke-width=".37326"><path d="m9.4365 147.38-8.333-90.125 191.79-15.663 16.666 180.25-191.79 15.663z" fill="#fefefe"/><path d="m110.42 223.89c-3.4943-1.6428-12.279-5.5281-22.968-10.158-8.5563-3.7061-9.6014-4.3508-10.102-6.2321-0.50976-1.9142-1.135-1.8549-5.1148 0.48511-1.512 0.88901-4.7981 2.9668-7.3024 4.6173-2.5044 1.6505-5.4551 3.5933-6.5572 4.3173-1.1021 0.72399-2.6938 1.8113-3.537 2.4162-2.3862 1.7119-3.1672 1.5988-9.7998-1.4188-3.2733-1.4893-9.5744-4.2722-14.002-6.1843-8.5524-3.6931-9.9396-4.4405-9.6995-5.226 0.0829-0.27123 1.4749-1.2845 3.0933-2.2518 1.6184-0.96724 5.0914-3.2235 7.7178-5.0138 2.6264-1.7904 4.9916-3.2731 5.2561-3.2949 0.26445-0.0219 1.1549 0.23212 1.9788 0.56437 0.82389 0.33225 1.7036 0.5873 1.955 0.56677 0.64634-0.0528 0.71174-1.1143 0.15744-2.5554-0.2857-0.74276-1.7931-16.251-3.7933-39.027-3.2236-36.705-3.2997-37.815-2.6421-38.505 0.37242-0.39091 6.1709-4.3042 12.885-8.6961 6.7146-4.3919 12.621-8.3106 13.125-8.7082 0.50422-0.39758 2.0881-1.4273 3.5198-2.2883l2.603-1.5654 3.9655 0.74956 0.30354-1.1231c0.18967-0.70178-0.12057-5.71-0.82697-13.35-0.67484-7.2987-1.0035-12.505-0.81552-12.918 0.17324-0.3801 2.1663-1.8659 4.4289-3.3018 2.2627-1.4359 5.2594-3.3888 6.6594-4.3398 9.0416-6.1418 16.53-10.972 17.079-11.017 0.58251-0.04758 0.72026 0.80548 1.5109 9.3562l0.86992 9.4086-1.1081 1.1573c-0.96905 1.0121-1.0456 1.2613-0.61 1.9861 0.28186 0.46894 1.2931 1.0845 2.3294 1.4178 1.0072 0.32402 2.3268 0.85823 2.9324 1.1871 0.60559 0.3289 4.8162 2.2203 9.357 4.2031 4.5408 1.9828 10.613 4.6429 13.493 5.9112s8.1367 3.5692 11.68 5.113 10.068 4.3967 14.499 6.3397c4.4308 1.943 10.773 4.7236 14.093 6.1792 3.3203 1.4555 6.2933 2.8488 6.6066 3.0962 0.46018 0.36334 0.90083 3.6932 2.2932 17.33 1.8683 18.297 1.953 20.301 0.87351 20.663-0.89041 0.29834-1.1393 2.1358-0.45653 3.3703 0.75361 1.3625 7.2979 4.5264 22.57 10.912l1.7085 0.71433 1.5105 16.336c1.7382 18.799 2.0034 17.302-2.6665 15.049-1.5574-0.7515-4.9854-2.3034-7.6178-3.4486-2.6324-1.1453-5.5494-2.5991-6.4822-3.2308-2.3825-1.6133-3.6036-1.9483-4.5072-1.2363-0.39338 0.30995-2.9099 1.9951-5.5923 3.7449-5.8095 3.7896-10.139 6.6368-15.076 9.9145-2.0026 1.3297-5.6906 3.7637-8.1954 5.409s-9.1432 6.026-14.752 9.7348c-5.6087 3.7088-11.265 7.4272-12.569 8.2631-1.3043 0.83584-3.7791 2.4841-5.4994 3.6628-3.9701 2.7201-4.7507 2.8017-8.763 0.9153zm-29.725-72.582c0.19265-0.19046-0.09685-0.29719-0.6775-0.24976-0.6129 0.05-1.2793-0.21478-1.6851-0.66964-0.66446-0.7449-0.67048-0.74486-0.60127 4e-3 0.03845 0.41589 0.0054 1.3018-0.07352 1.9688l-0.14343 1.2126 1.4222-0.96654c0.78221-0.5316 1.5736-1.1162 1.7586-1.2991zm24.64-16.133c0.55228-0.33865 0.66733-0.80609 0.52461-2.1314l-0.18282-1.6976-0.3701 1.5854c-0.20355 0.87198-0.55842 1.8408-0.78858 2.1529-0.49037 0.665-0.17662 0.6998 0.81689 0.0906zm-10.923-9.4993 0.84176-1.0292-0.99618 0.72034c-0.5479 0.39619-0.98291 0.86391-0.96668 1.0394 0.04532 0.49018 0.21097 0.38223 1.1211-0.73054zm10.007-7.0078c-0.10448-0.0825-0.75719 0.26973-1.4505 0.78269-1.2199 0.90258-1.2329 0.94262-0.40509 1.2412 0.47049 0.16968 1.1612 0.79413 1.5349 1.3877l0.67948 1.0791-0.0845-2.1704c-0.0465-1.1937-0.16993-2.2378-0.27439-2.3203zm-28.3-1.9669c0.53801-0.73989 0.52901-0.74271-0.35422-0.11106-0.49844 0.35646-0.91827 1.039-0.93296 1.5167-0.02544 0.82692-0.0084 0.83224 0.35422 0.11105 0.20952-0.41665 0.62935-1.0992 0.93296-1.5167zm-0.95252-11.648c1.4146-1.0528 1.4491-1.1248 0.55999-1.1685-0.52116-0.0256-1.2485-0.25802-1.6163-0.51651-0.59822-0.42042-0.68318-0.34776-0.80583 0.68917-0.16667 1.4091-0.11258 2.156 0.15456 2.1342 0.11-9e-3 0.87841-0.52123 1.7076-1.1383zm28.07-5.7377c-0.67448-0.24025-1.0188-0.20572-1.3211 0.13249-0.31165 0.34865-0.0948 0.42591 0.91221 0.32492 1.2406-0.12442 1.2655-0.15225 0.40886-0.4574zm-13.187-24.221 0.86606-0.62628-1.1149-0.18488c-1.3158-0.21819-1.2215-0.28668-1.4506 1.0539-0.19478 1.14-0.21721 1.1432 1.6994-0.24275z" fill="#e0cfae"/><path d="m112.21 224.47c-1.1015-0.43725-2.7339-1.1783-3.6274-1.6468-1.5098-0.79161-3.6451-1.7474-10.28-4.602-1.4389-0.619-5.0638-2.2057-8.0554-3.526-2.9916-1.3203-6.7072-2.9471-8.2568-3.6151-3.1729-1.3677-3.5582-1.7265-4.0173-3.7405-0.29545-1.2962-0.43698-1.4274-1.5513-1.4378-1.6412-0.0154-2.103 0.26322-19.938 12.031-2.1311 1.4062-4.1568 2.5797-4.5016 2.6078-0.34479 0.0282-3.3015-1.1742-6.5706-2.6719s-9.3854-4.2097-13.592-6.0266c-4.2066-1.8169-8.2572-3.6545-9.0014-4.0834-1.2635-0.72837-1.3159-0.82602-0.79123-1.4762 0.309-0.38291 1.582-1.3128 2.829-2.0664 1.2469-0.75359 4.4363-2.8299 7.0875-4.6141 2.6512-1.7842 5.1559-3.2713 5.566-3.3048 0.41013-0.0335 1.4027 0.23462 2.2057 0.59582 0.96999 0.43629 1.5772 0.52566 1.8091 0.26624 0.228-0.25506-0.9233-14.022-3.3201-39.7l-3.6691-39.31 0.79183-0.96231c0.72399-0.87986 3.8333-2.9783 19.199-12.958 2.9075-1.8883 5.6741-3.7425 6.1479-4.1206 1.849-1.4751 6.0122-3.9004 6.7823-3.9511 0.4461-0.0293 1.264 0.14323 1.8177 0.38351 2.8788 1.2495 2.9353 0.7821 1.7498-14.49l-1.0226-13.174 4.5544-2.9901c2.5049-1.6445 5.536-3.659 6.7357-4.4766 1.1997-0.81762 3.9033-2.6125 6.0079-3.9886 2.1046-1.3761 5.1657-3.4142 6.8025-4.5292s3.2354-2.0484 3.5526-2.0743c0.88129-0.07198 1.2754 2.108 1.9324 10.688l0.59041 7.7107-1.1959 1.1163c-1.0642 0.99337-1.1459 1.2247-0.74225 2.1014 0.33939 0.73706 0.91061 1.098 2.2685 1.4332 0.99819 0.24645 2.3698 0.75513 3.048 1.1304 1.0942 0.60544 8.6824 3.973 20.812 9.2361 6.4522 2.7997 11.298 4.9234 17.119 7.5028 2.9921 1.3259 6.617 2.9127 8.0554 3.5262 1.4384 0.61355 4.3374 1.873 6.4423 2.7988 2.1049 0.92579 6.909 3.0395 10.676 4.6971 3.7667 1.6576 6.9915 3.1774 7.1662 3.3773 0.41493 0.47487 3.7262 36.288 3.4047 36.823-0.13533 0.2254-0.53842 0.53923-0.89577 0.6974-0.49924 0.22097-0.61144 0.70173-0.48441 2.0756 0.19252 2.0821 0.48924 2.3782 4.2574 4.248 3.3307 1.6527 18.113 8.1279 18.486 8.0975 0.1534-0.0125 0.68725 0.27713 1.1863 0.6437 0.90687 0.66606 0.90833 0.67618 2.3708 16.493 0.80484 8.7046 1.3275 15.922 1.1614 16.038-0.16608 0.11627-1.9208-0.52245-3.8993-1.4194-1.9785-0.89693-5.7749-2.6108-8.4363-3.8086-2.6614-1.1978-5.3898-2.633-6.063-3.1893-1.6256-1.3434-3.4237-1.5056-4.769-0.43021-0.88012 0.70357-6.6267 4.5266-20.329 13.524-1.8035 1.1843-5.4102 3.5572-8.0147 5.2732-2.6046 1.7159-7.2765 4.7933-10.382 6.8385-3.1055 2.0453-7.6944 5.0801-10.198 6.7442-2.5031 1.664-5.8648 3.8651-7.4703 4.8912-1.6056 1.0261-3.3245 2.1849-3.8198 2.5751-1.296 1.0209-4.6409 2.9242-5.2226 2.9717-0.2724 0.0223-1.3965-0.3173-2.498-0.75456zm-22.728-78.65c1.403-0.91777 3.123-2.0655 3.8221-2.5506 0.6991-0.48504 3.853-2.5566 7.0087-4.6034l5.7376-3.7215-0.76979-8.382c-0.42355-4.6101-0.85002-8.3754-0.94808-8.3674-0.0981 8e-3 -1.6149 1.0013-3.3708 2.2073-1.7558 1.206-4.301 2.899-5.656 3.7622l-2.4635 1.5695 0.17978 1.9444c0.1779 1.924 0.16347 1.954-1.3778 2.8628-0.85667 0.5051-1.3264 0.9718-1.0439 1.0371 1.0594 0.24486 2.6984-0.98802 3.7036-2.7858 1.2079-2.1602 2.8904-3.9034 4.9155-5.0925 1.7369-1.0199 2.3614-1.1015 3.2231-0.42113 0.87917 0.69417 1.6243 8.1767 0.99782 10.02-0.54298 1.5981-0.98143 1.9344-12.063 9.252-9.5371 6.2979-10.985 6.9869-11.902 5.6657-0.29528-0.42539-0.92515-5.6791-1.7487-14.586-1.3569-14.676-1.3518-15.002 0.2603-16.611 1.1663-1.1636 22.1-14.822 23.567-15.376 1.2213-0.46154 1.6929-0.45435 3.3544 0.0511 1.0633 0.32349 11.964 4.9978 24.224 10.387s23.788 10.45 25.619 11.245c1.9886 0.86348 3.9888 1.4617 4.9682 1.4859l1.6396 0.0405-1.0264-0.65195c-0.56455-0.35857-4.5607-2.1981-8.8803-4.0879-10.1-4.4187-24.435-10.719-27.796-12.217-9.1145-4.0615-20.276-8.9433-20.722-9.064-0.28976-0.0782-5.994 3.4746-12.676 7.8953-6.6821 4.4206-13.013 8.5702-14.069 9.2212l-1.9195 1.1837 3.3853 36.613 4.6382-3.1289c2.551-1.7209 5.7861-3.8798 7.1892-4.7976zm86.376-4.1782c-0.0688-0.74369-1.6596-2.1987-2.6269-2.4026-0.77232-0.16282-19.208-8.1861-51.251-22.304-13.805-6.0827-15.93-6.8703-18.062-6.6966-1.8517 0.1509-5.1196 1.9628-11.708 6.4913-4.5919 3.1563-5.6342 4.3581-6.1577 7.0995-0.34358 1.7994 0.23123 5.2014 1.0724 6.3468 0.53387 0.72696 0.56683 0.32917 0.29914-3.6104l-0.30082-4.4274 1.3487-0.95852c0.7418-0.52718 4.1356-2.7927 7.5418-5.0346s6.6076-4.3501 7.1142-4.685c0.98724-0.65268 0.11627-1.0057 29.901 12.119 2.659 1.1717 9.0944 4.0001 14.301 6.2852 5.2064 2.2851 13.635 5.9846 18.731 8.221s9.3948 4.0622 9.5538 4.0573c0.15896-5e-3 0.26854-0.2304 0.24352-0.50108zm-11.761-20.951c0.25002-3.7748-1.1383-6.9458-3.7486-8.5621-1.282-0.79381-51.003-22.748-54.757-24.179-2.2372-0.85216-4.593-0.89448-6.4444-0.11576-0.84292 0.35453-5.9454 3.5532-11.339 7.1082-5.3935 3.555-10.24 6.6042-10.769 6.7761-1.3426 0.43585-2.2199-0.3724-2.7252-2.5107-0.22877-0.968-0.66274-2.0255-0.96437-2.35-0.48293-0.51953-0.56051-0.3947-0.64963 1.0453-0.05566 0.8994 0.09683 3.1988 0.33887 5.1099l0.44008 3.4746 4.7286-3.1959c2.6007-1.7577 8.6632-5.7834 13.472-8.9458 4.809-3.1625 8.998-5.9234 9.3089-6.1353 0.42247-0.28798 2.3927 0.42465 7.7969 2.8201 15.604 6.9166 48.59 21.359 51.231 22.431l2.108 0.85549 0.44855 4.7183c0.39602 4.1656 0.50532 4.6335 0.93315 3.994 0.26652-0.39834 0.5327-1.4507 0.59151-2.3386zm-74.98-37.34c2.7387-1.4856 9.0129-5.6543 9.9217-6.5921 0.75977-0.784 1.0092-1.7998 0.43029-1.7525-0.66198 0.0541-13.967 8.9554-13.933 9.3216 0.04037 0.43665 1.9209-0.0764 3.5811-0.977zm-5.7562-9.3724c0.36736-0.14354 1.2209-0.73293 1.8968-1.3097l1.2289-1.0488-1.3219 0.33266c-1.671 0.42052-3.1034 2.1485-3.4956 4.2168-0.35441 1.8692 0.16611 5.1038 1.0558 6.5608 0.58392 0.95624 0.6076 0.66308 0.30095-3.7264-0.29409-4.2097-0.25508-4.7947 0.33509-5.0253zm13.091-3.136c0.69075-0.72754 0.69025-0.7312-0.09169-0.66733-0.43244 0.03532-1.8513 0.57602-3.1531 1.2015-1.9476 0.93587-2.5909 1.0922-3.6319 0.88254-1.5128-0.30468-1.6777-6e-3 -1.4365 2.6023l0.163 1.7629 3.7278-2.5252c2.0503-1.3888 4.0404-2.8544 4.4224-3.2567z" fill="#aea286"/><path d="m112.01 224.3c-0.77717-0.35928-1.8922-0.90841-2.4779-1.2203s-4.1238-1.9008-7.8626-3.5309c-3.7387-1.6301-7.7958-3.4132-9.0156-3.9624-1.2198-0.54919-4.6646-2.0679-7.6549-3.375-2.9904-1.307-5.6761-2.6112-5.9684-2.8982-0.29223-0.28697-0.58546-1.1072-0.65162-1.8228-0.31784-3.4375-2.0329-2.8359-13.476 4.7273-2.5039 1.655-6.2144 4.1047-8.2454 5.4438-4.133 2.725-5.1921 2.9887-7.3803 1.8378-1.6731-0.87988-4.9624-2.3457-17.06-7.6027-4.6506-2.0208-8.8266-3.952-9.2802-4.2917-1.1181-0.83725-0.66311-1.6061 1.8609-3.1442 1.0904-0.66448 4.1109-2.6404 6.7123-4.3908 2.6014-1.7505 5.0335-3.3162 5.4047-3.4794 0.38185-0.16788 1.4328-0.0441 2.4206 0.28514 0.96016 0.32 1.9334 0.5665 2.1627 0.54777 0.68326-0.0558 0.93291-1.6108 0.45322-2.8229-0.56665-1.4319-7.2807-76.124-6.9208-76.993 0.1456-0.35156 2.9162-2.3618 6.1569-4.4673s8.0212-5.254 10.623-6.9968c2.6021-1.7428 5.7174-3.7873 6.9228-4.5434 1.2054-0.75605 2.4313-1.6044 2.7242-1.8852 0.29287-0.2808 1.7147-1.2086 3.1596-2.0618l2.6271-1.5512 1.8754 0.6033c2.2784 0.73297 2.0485 0.75723 2.5524-0.26924 0.30757-0.62651 0.16764-4.2366-0.52981-13.668-0.7574-10.242-0.63355-9.14 0.61658 5.4888 0.86039 10.068 1.6417 18.299 1.7363 18.292 0.09458-8e-3 1.0315-0.62966 2.0819-1.3821s5.271-3.5758 9.3789-6.2742c4.1079-2.6984 9.3834-6.1797 11.723-7.7363 2.3399-1.5566 4.5572-2.8549 4.9273-2.8851 0.37017-0.0302 1.8639 0.48597 3.3195 1.1471 3.5511 1.613 35.462 15.622 54.808 24.06l2.2149 0.96614 0.57243 5.106c0.5365 4.7855 0.52729 5.1096-0.14667 5.1647-0.3955 0.0323-1.1579-0.20155-1.6942-0.51968-0.53634-0.31812-2.4247-1.2086-4.1964-1.979-9.0843-3.9497-36.771-16.119-46.671-20.513-3.7358-1.6582-6.9664-3.0007-7.1791-2.9833-0.36357 0.0297-2.7227 1.5353-11.416 7.286-2.0031 1.325-6.6352 4.3623-10.294 6.7495l-6.6517 4.3404 1.6983 18.368c1.3496 14.596 1.7917 18.305 2.1532 18.063 0.25016-0.16799 1.1077-0.76798 1.9057-1.3333s2.3936-1.647 3.5458-2.4037c2.6599-1.7468 4.8756-3.2123 12.109-8.0095 3.2044-2.125 6.8541-4.503 8.1103-5.2842l2.2841-1.4205-0.78107-8.4476c-0.42959-4.6462-0.88566-8.439-1.0135-8.4286-0.12782 0.0104-1.9746 1.1968-4.104 2.6363-2.1294 1.4395-4.6424 3.1177-5.5845 3.7294-1.6597 1.0776-1.7111 1.1702-1.656 2.9884 0.05658 1.868 0.04754 1.8825-2.0413 3.2686-1.154 0.76572-2.257 1.317-2.4512 1.225-0.19418-0.092-0.48758-2.3239-0.65201-4.9598-0.16442-2.6359-0.30691-4.9022-0.31663-5.0362-0.0097-0.13403 0.84498-0.78843 1.8994-1.4542 1.0544-0.66579 4.8317-3.1276 8.394-5.4706 4.5671-3.0039 6.6248-4.1668 6.9782-3.944 0.27571 0.17383 4.1258 1.8988 8.5558 3.8332 12.351 5.3934 41.269 18.089 53.776 23.609 3.4348 1.5159 7.1142 3.1229 8.1765 3.5712l1.9314 0.81495-0.92339 0.68293c-1.1772 0.87068-1.086 3.0333 0.18151 4.3039 1.0955 1.0981 6.4684 3.6315 18.995 8.9563 2.3232 0.98753 4.4644 2.0453 4.7583 2.3505 0.40749 0.42322 0.86077 4.0847 1.9086 15.417 0.7558 8.1743 1.2931 15.127 1.1941 15.452-0.099 0.32409-0.44903 0.61121-0.77772 0.63806-0.32869 0.0268-3.4282-1.2508-6.8877-2.8392-3.4596-1.5884-6.8997-3.1207-7.6447-3.4051-0.74502-0.28441-2.067-1.0911-2.9378-1.7927-1.8481-1.4891-3.3577-1.8482-4.2425-1.0093-0.33412 0.31681-1.9198 1.4297-3.5238 2.473-1.604 1.0434-5.3742 3.5277-8.3783 5.5208-3.0041 1.9931-9.0687 5.9951-13.477 8.8933-10.01 6.5809-21.256 14.001-25.315 16.703-1.702 1.133-4.4081 2.9006-6.0135 3.9281-1.6055 1.0275-3.3243 2.1874-3.8196 2.5776-1.7477 1.3768-4.7402 2.9322-5.7955 3.0124-0.58746 0.0447-1.704-0.21284-2.4812-0.57213zm63.847-93.513c-1.332-11.331-2.5029-24.535-2.151-24.257 0.23604 0.18638 3.7894 35.111 3.5741 35.128-0.079 6e-3 -0.71942-4.8856-1.4231-10.871zm-91.927 12.387-1.0654-0.0279-0.6164-6.6665c-0.34093-3.6872-0.45929-6.5921-0.26485-6.5 0.19335 0.0916 0.61179 0.63706 0.92987 1.2121 0.3378 0.61074 0.75024 0.93374 0.99168 0.77662 0.22735-0.14794 0.30046-0.1289 0.16248 0.0423-0.30808 0.38227 1.0813 2.2799 1.636 2.2346 0.22022-0.018 0.64255 0.26986 0.93852 0.63965 0.34606 0.43237 0.75953 0.57103 1.1585 0.38849 0.37698-0.1725 0.53851-0.1313 0.41176 0.10501-0.41256 0.76924 1.7105 1.1097 3.2769 0.52543 0.7984-0.29778 1.345-0.67594 1.2147-0.84035-0.13032-0.16442-0.09251-0.28733 0.08402-0.27314 0.17653 0.0142 0.53559-0.0111 0.79792-0.0562 0.62324-0.10711 3.581-3.2753 3.672-3.9333 0.07926-0.57299 1.4043-2.3358 1.7787-2.3664 0.13403-0.0109 0.34768 1.1047 0.47477 2.4793 0.2018 2.1826 0.13657 2.5361-0.51491 2.7907-0.41029 0.16032-0.73362 0.42519-0.71851 0.58861s-0.39463 0.43416-0.91054 0.60164c-0.51591 0.16749-0.92242 0.47322-0.90335 0.67942 0.01907 0.2062-0.14721 0.28874-0.36951 0.18343-0.2223-0.10531-0.38829-0.0197-0.36887 0.1903 0.01941 0.20998-0.22361 0.40292-0.54006 0.42877-0.31645 0.0258-0.55947 0.21879-0.54006 0.42876 0.01941 0.20998-0.11903 0.30866-0.30766 0.2193-0.18863-0.0894-0.68425 0.19301-1.1014 0.6275-0.41713 0.43448-0.76746 0.69216-0.77852 0.57261-0.01105-0.11955-0.6768 0.20373-1.4794 0.71839-0.80264 0.51467-1.4462 1.0777-1.4302 1.2512 0.01604 0.17346-0.15272 0.22923-0.37501 0.12391-0.22229-0.10531-0.38991-0.0373-0.37249 0.15122 0.01743 0.18849-0.39042 0.47973-0.90633 0.64721-0.51591 0.16749-0.9233 0.46365-0.90532 0.65815 0.01798 0.19449-0.21388 0.37377-0.51526 0.39838-0.30138 0.0246-0.7573 0.26616-1.0132 0.53677-0.25586 0.27061-0.94461 0.47946-1.5306 0.4641zm86.438-8.7153c-0.41981-0.44017-1.159-0.76798-1.6427-0.72848-0.48369 0.0395-1.8029-0.36353-2.9317-0.89563s-2.2222-0.95357-2.43-0.9366c-0.20779 0.017-0.38939-0.0945-0.40356-0.24766-0.0142-0.15318-0.70265-0.54605-1.53-0.87302-1.4696-0.58082-2.5274-1.2112-2.5563-1.5234-8e-3 -0.0856 0.97975-0.21885 2.1948-0.296 1.8741-0.11899 2.4555-0.32964 3.8329-1.3885 0.92189-0.70869 1.5769-1.5062 1.5155-1.8452-0.0595-0.32833 0.0389-0.52726 0.21876-0.44208 0.17981 0.0852 0.68748-0.79503 1.1281-1.956 1.1582-3.0515 0.81556-6.2165-1.0056-9.2877-0.74494-1.2563-1.5444-2.2686-1.7767-2.2497-0.23225 0.019-0.33058-0.13645-0.21853-0.34537s-0.0552-0.35871-0.37163-0.33287c-0.31645 0.0258-0.71583-0.13024-0.88752-0.34685-0.2119-0.26735-0.13007-0.30997 0.25477-0.1327 0.48285 0.22242 0.4805 0.17706-0.0159-0.3058-0.32057-0.31183-0.80215-0.54904-1.0702-0.52715-0.26804 0.0219-0.61435-0.20536-0.76957-0.505-0.15523-0.29964-0.44672-0.42964-0.64776-0.28888-0.20105 0.14075-0.37866 0.114-0.3947-0.0595-0.0336-0.36375-3.3105-1.8421-3.7304-1.683-0.15402 0.0584-0.29357-0.0402-0.31011-0.21912-0.0165-0.17888-0.52099-0.46222-1.121-0.62964-1.2089-0.33733-2.3833-0.88121-3.2418-1.5013-0.3106-0.22435-0.89761-0.38072-1.3045-0.34749-0.40686 0.0332-0.75475-0.1018-0.77308-0.30008-0.0183-0.19827-0.29224-0.33935-0.60869-0.31351-0.31645 0.0258-0.59124-0.1248-0.61066-0.33478-0.0194-0.20998-0.1739-0.28474-0.3433-0.16613-0.1694 0.1186-0.70942-0.0792-1.2-0.43954s-0.88285-0.52697-0.87162-0.37028c0.0114 0.15668-0.12238 0.12232-0.29691-0.0764-0.17454-0.19871-1.403-0.8179-2.73-1.376-1.3269-0.55807-3.6839-1.5973-5.2376-2.3093-5.1004-2.3374-6.8485-3.0716-7.2375-3.0398-0.21097 0.0172-0.7041-0.24354-1.0959-0.57948-0.39176-0.33595-0.86718-0.50237-1.0565-0.36983-0.18932 0.13254-0.47074-3e-3 -0.62539-0.30182-0.15466-0.29854-0.44568-0.42763-0.64673-0.28687-0.20104 0.14075-0.38142 0.0841-0.40083-0.12585-0.0194-0.20998-0.29421-0.36063-0.61066-0.33479-0.31644 0.0258-0.59124-0.12481-0.61065-0.33478-0.0194-0.20998-0.19864-0.26742-0.39827-0.12765-0.19964 0.13977-0.37785 0.0933-0.39603-0.10335-0.0182-0.19661-0.42386-0.43987-0.90151-0.54056s-1.1268-0.38709-1.4426-0.63643c-0.3158-0.24935-0.7255-0.34741-0.91045-0.21792s-0.46328-0.01-0.6185-0.30937c-0.15522-0.29964-0.59664-0.51912-0.98093-0.48774-0.38429 0.0314-0.98012-0.16512-1.3241-0.43669-0.34395-0.27157-0.8103-0.47865-1.0363-0.46019-0.22603 0.0185-0.42685-0.13824-0.44627-0.34821-0.0194-0.20998-0.1739-0.28474-0.3433-0.16614-0.1694 0.11861-0.70162-0.0734-1.1827-0.42679-0.48108-0.35335-0.94346-0.63683-1.0275-0.62997-0.084 7e-3 -1.7649-0.6956-3.7353-1.561-1.9704-0.86543-4.1258-1.807-4.7899-2.0923-0.66406-0.28536-1.4168-0.43293-1.6728-0.32795s-0.48028 0.0304-0.49841-0.16577c-0.0457-0.49383-3.1849-1.1324-4.298-0.87422-0.58509 0.1357-0.73835 0.29422-0.42703 0.44171 0.27546 0.13049-0.0335 0.27244-0.71396 0.32801-0.65976 0.0539-1.2992 0.28385-1.4211 0.51103-0.12184 0.22717-0.68416 0.56323-1.2496 0.7468-0.56543 0.18356-1.0147 0.47838-0.99834 0.65516 0.01634 0.17678-0.22919 0.34256-0.54564 0.36841-0.31645 0.0258-0.56036 0.20921-0.54202 0.40749 0.01833 0.19827-0.09883 0.34184-0.26035 0.31904-0.4618-0.0652-3.0492 1.5051-3.019 1.8322 0.01494 0.16155-0.15842 0.30888-0.38525 0.32741-0.48461 0.0396-5.4223 3.3036-6.0991 4.0318-0.25546 0.27485-0.68993 0.51813-0.96548 0.54064-0.27555 0.0225-0.69196 0.29989-0.92536 0.61641-0.2334 0.31651-0.5701 0.50645-0.74823 0.42206-0.17812-0.0844-0.36766 0.0185-0.4212 0.22858-0.05354 0.21009-0.73415 0.53326-1.5125 0.71814-1.3343 0.31695-1.4201 0.28199-1.5028-0.61227-0.04823-0.52162-0.27921-0.8919-0.5133-0.82284-0.97703 0.28825-1.8185-4.0281-2.6313-13.497l-0.80497-9.378 1.0943 9.536 1.0943 9.536-1.5825-18.996 1.0081-1.1278c0.55443-0.62026 0.92104-1.1965 0.81468-1.2804-0.10636-0.08398 0.1911-0.38754 0.66101-0.67458 0.80246-0.49017 0.82312-0.47906 0.33985 0.18278-0.4835 0.66216-0.46671 0.67095 0.27832 0.14565 0.43608-0.30746 0.70072-0.67528 0.58811-0.81736-0.11262-0.14208 0.33782-0.56462 1.001-0.93896l1.2057-0.68064-1.7739 1.7132 1.2778-0.80912c3.7477-2.373 7.2879-4.7751 7.2731-4.9349-0.0092-0.09988-0.63074 0.23174-1.3811 0.73692-3.0743 2.0697-5.1946 3.3805-5.2094 3.2205-0.01208-0.13066 3.9779-2.8238 7.0587-4.7645 0.18899-0.11905 0.21197 0.01259 0.05372 0.30766-0.40834 0.76137 3.2186-1.6961 3.9179-2.6546 0.5142-0.70481 0.6587-0.74815 1.0341-0.31012 0.36191 0.42228 0.48596 0.42103 0.72679-0.0073 0.20253-0.36023 0.38096-0.40228 0.58966-0.13896 0.16459 0.20766 0.11646 0.39249-0.10695 0.41073-0.25815 0.02108-0.28764 1.3156-0.08091 3.5514 0.2892 3.1278 0.24479 3.5752-0.40021 4.0312-0.39903 0.28211-0.73888 0.36829-0.75523 0.19152-0.04606-0.49814-7.4634 0.1067-8.5803 0.69968-0.53303 0.28299-0.95567 0.66029-0.9392 0.83844 0.01647 0.17815-0.15193 0.23774-0.37422 0.13244-0.22229-0.10531-0.3874-0.0101-0.3669 0.21158 0.0205 0.22168-0.14461 0.31689-0.3669 0.21158-0.2223-0.10531-0.3874-0.0101-0.36691 0.21158 0.0205 0.22168-0.11446 0.33117-0.29991 0.24331-0.18545-0.08786-1.0768 0.71795-1.9807 1.7907-1.2742 1.5121-1.5736 2.1248-1.3325 2.7264 0.21618 0.53944 0.18808 0.63696-0.09217 0.3199-0.70516-0.79776-1.0777 1.7067-0.76192 5.122 0.29997 3.2443 0.95416 5.1931 1.5931 4.7458 0.21391-0.14977 0.28037 7e-3 0.16412 0.38754-0.13167 0.43079-0.05826 0.54324 0.22512 0.34484 0.2599-0.18197 0.36252-0.10471 0.26868 0.2023-0.16434 0.53769 2.6305 2.8802 2.9757 2.494 0.11526-0.12893 0.56913 0.0495 1.0086 0.39648 1.0589 0.83603 1.9791 0.71652 4.3956-0.57087 1.1072-0.58986 2.1908-1.087 2.4079-1.1047 0.21716-0.0177 0.27015-0.18956 0.11775-0.38183-0.1524-0.19228-0.13146-0.32505 0.04653-0.29506 0.55599 0.0937 2.0002-0.62166 1.9676-0.97458-0.0171-0.18491 0.22782-0.35735 0.54427-0.38319 0.31645-0.0259 0.55947-0.21879 0.54006-0.42876-0.01941-0.20998 0.14658-0.29562 0.36887-0.19031 0.2223 0.10531 0.38991 0.0373 0.37249-0.15122-0.01743-0.18848 0.37861-0.47589 0.88009-0.63869 0.50148-0.16279 1.1715-0.58654 1.4889-0.94164 0.44268-0.49524 1.2056-0.67965 3.2749-0.79158 1.8128-0.0981 2.6041-0.26405 2.4124-0.50601-0.51155-0.64539 0.0827-1.1942 0.79995-0.73878 0.54699 0.34734 0.59652 0.33832 0.29332-0.0534-0.25226-0.32596-0.19566-0.43328 0.1835-0.34794 0.30156 0.0679 0.57037 0.35317 0.59735 0.63397 0.0272 0.28198 0.4191 0.48033 0.8756 0.44305 0.45459-0.0371 0.98524 0.0683 1.1792 0.23434 0.21034 0.18003 0.10901 0.19681-0.25108 0.0416-0.52557-0.22655-0.52621-0.18486-5e-3 0.32192 0.32936 0.3202 0.83724 0.47308 1.1286 0.33975 0.61737-0.2825 4.9242 1.5837 4.6848 2.03-0.0888 0.16551 0.12492 0.16991 0.47486 0.01 0.42877-0.1962 0.55929-0.14763 0.40024 0.14893-0.14576 0.27177-0.0473 0.35372 0.25735 0.2143 0.27136-0.12417 0.8565-6e-3 1.3003 0.26207 0.80116 0.48434 0.80131 0.48674 0.0199 0.33535-0.61759-0.11966-0.65973-0.0825-0.19572 0.17273 0.32523 0.17888 0.71683 0.23736 0.87023 0.12996 0.43645-0.30558 2.7566 0.71156 2.5408 1.1139-0.106 0.19763 0.0493 0.24857 0.3452 0.11319 0.29586-0.13538 0.68668-0.0586 0.86853 0.17095 0.22534 0.2843 0.16214 0.3373-0.19847 0.16646-0.35271-0.16709-0.42353-0.1175-0.21248 0.14877 0.17412 0.21968 0.46303 0.29688 0.64202 0.17156 0.32468-0.22732 3.5424 0.83988 3.5744 1.1855 9e-3 0.1002-0.52424-0.0272-1.1856-0.2831-0.66133-0.25591-1.1948-0.3833-1.1856-0.2831 9e-3 0.10019 0.75673 0.46401 1.661 0.80847 1.0152 0.38672 1.5146 0.45297 1.3054 0.17318-0.1863-0.24922 0.15402-0.0439 0.75628 0.45631 0.60225 0.50018 1.2322 0.89302 1.4 0.87297 0.16771-0.0201-0.0522-0.24727-0.48857-0.50493-0.43642-0.25766-0.59188-0.48494-0.34546-0.50507 0.24642-0.0201 0.76329 0.33991 1.1486 0.80009 0.65095 0.77743 2.031 1.3601 2.6917 1.1364 0.48001-0.16251 4.7574 1.7934 5.0167 2.294 0.13402 0.25871 0.37515 0.37832 0.53585 0.26581 0.4711-0.32983 1.5488 0.0927 1.5982 0.62664 0.0286 0.30972 0.27308 0.38668 0.66238 0.20854 0.448-0.205 0.54309-0.14452 0.34717 0.22077-0.17777 0.33148-0.12942 0.40481 0.14173 0.21497 0.52514-0.36767 2.1192 0.25665 1.8651 0.73046-0.10798 0.20135 0.0857 0.22977 0.44509 0.0653 0.41328-0.18911 0.55766-0.1446 0.41198 0.12703-0.12335 0.22999-0.0113 0.51905 0.24894 0.64234 0.29554 0.14001 0.356 0.0763 0.16104-0.16966-0.41531-0.52397 0.13689-0.52458 1.0198-1e-3 0.39005 0.23126 0.59459 0.56246 0.45452 0.736-0.14007 0.17355-0.05 0.18142 0.20018 0.0175 0.54977-0.36023 2.186 0.4519 1.8209 0.90376-0.14184 0.17552-0.0514 0.18377 0.20091 0.0183 0.55053-0.36094 7.7738 2.7188 7.5138 3.2036-0.0977 0.18215 0.0685 0.21854 0.36938 0.0809 0.31937-0.14614 0.7416 0.03 1.0146 0.42339 0.51495 0.74181 1.9181 1.3123 1.4385 0.58489-0.15479-0.23478-0.01-0.16557 0.32221 0.15381 0.33201 0.31938 0.69277 0.48099 0.8017 0.35912 0.343-0.38373 1.906 0.44093 1.67 0.88108-0.13266 0.24736-0.0594 0.30356 0.17858 0.13695 0.51155-0.35815 4.7414 1.4301 5.3058 2.2432 0.23281 0.33539 0.73946 0.68533 1.1259 0.77764 0.60297 0.14406 0.58992 0.0997-0.0921-0.31297-0.43705-0.26445-0.63196-0.4916-0.43314-0.50478 0.62325-0.0413 1.5737 0.54666 1.6155 0.99944 0.0221 0.23856 0.30516 0.47901 0.62911 0.53436 0.52356 0.0894 0.52115 0.0633-0.0217-0.23482-0.79066-0.43426-0.21947-0.49159 0.80172-0.0805 0.43323 0.17442 0.68643 0.50589 0.56269 0.73661-0.1399 0.26085-0.0579 0.30248 0.21694 0.11009 0.24706-0.17298 0.78314-0.0661 1.2157 0.24217 0.71207 0.50758 0.83961 1.2315 1.599 9.0763 0.49936 5.1588 0.97662 8.5602 1.2088 8.6145 0.21097 0.0494 0.40594 0.36033 0.43327 0.69105 0.0326 0.39479-0.0603 0.46613-0.27065 0.20773-0.17618-0.21648-0.0733 1.6139 0.22852 4.0676 0.33305 2.7072 0.40364 4.473 0.17955 4.4913-0.20311 0.0166-0.71276-0.32998-1.1326-0.77015zm-11.082-30.001c-9e-3 -0.0922-0.42021-0.31273-0.91487-0.49015-0.86365-0.30977-0.86774-0.30273-0.10298 0.17724 0.83707 0.52535 1.0434 0.58877 1.0178 0.31291zm-10.473-4.593c-9e-3 -0.0922-0.42022-0.31273-0.91487-0.49015-0.86366-0.30977-0.86775-0.30273-0.10299 0.17724 0.83707 0.52535 1.0434 0.58877 1.0179 0.31291zm-2.2275-1.1021c-0.14872-0.18762-0.47574-0.32186-0.72671-0.29831-0.27419 0.0257-0.21377 0.16356 0.15135 0.3453 0.77827 0.38739 0.91106 0.37654 0.57536-0.047zm-13.882-5.9362c-9e-3 -0.0922-0.42021-0.31273-0.91487-0.49015-0.86365-0.30977-0.86774-0.30273-0.10298 0.17724 0.83707 0.52535 1.0434 0.58877 1.0178 0.31291zm-2.0178-0.92486c-9e-3 -0.0922-0.42021-0.31273-0.91487-0.49015-0.86366-0.30977-0.86774-0.30273-0.10298 0.17724 0.83707 0.52535 1.0434 0.58877 1.0178 0.31291zm-18.928-8.2611c-9e-3 -0.0922-0.42021-0.31273-0.91487-0.49015-0.86366-0.30977-0.86775-0.30273-0.10298 0.17724 0.83707 0.52535 1.0434 0.58877 1.0178 0.31291zm-2.0178-0.92486c-9e-3 -0.0922-0.42022-0.31273-0.91488-0.49015-0.86365-0.30977-0.86774-0.30273-0.10298 0.17724 0.83707 0.52535 1.0434 0.58877 1.0179 0.31291zm-28.772 39.688c-0.30536-3.0543-0.18248-4.2341 0.41174-3.9526 0.19089 0.0904 0.66804-0.19465 1.0603-0.63352 0.39229-0.43887 0.7586-0.77766 0.81404-0.75287 0.35686 0.15957 1.7431-0.67428 1.5423-0.92769-0.1366-0.17234 0.05743-0.23026 0.43232-0.12904 0.46795 0.12634 0.57936 0.0565 0.35711-0.22394-0.17767-0.22416-0.17741-0.38302 5.57e-4 -0.35302 0.68337 0.11515 1.9966-0.65888 1.7168-1.0119-0.16554-0.20886-0.10584-0.28076 0.13744-0.16551 0.57526 0.27252 1.671-0.25075 1.3564-0.64773-0.13682-0.17261-0.10433-0.30223 0.0722-0.28804 0.82952 0.0667 1.2885-0.17785 1.0051-0.53544-0.19324-0.24381-0.13467-0.30976 0.15374-0.17313 0.49176 0.23297 2.0634-0.78568 1.6797-1.0887-0.12308-0.0972 0.04236-0.29847 0.36764-0.44731 0.33394-0.1528 0.50603-0.11141 0.39529 0.0951-0.10787 0.20114 0.95932-0.39275 2.3715-1.3198s2.4582-1.8236 2.3244-1.9924c-0.1338-0.16881 0.06279-0.22429 0.43688-0.1233 0.50116 0.13531 0.58481 0.0633 0.31786-0.27345-0.25436-0.32092-0.19038-0.41067 0.21479-0.30129 0.31739 0.0857 0.88407-0.0962 1.2593-0.40434 0.72243-0.59317 3.5858-0.99771 3.6306-0.51294 0.0145 0.15722-0.88915 0.66429-2.0082 1.1268-1.119 0.46255-1.9327 0.96959-1.8081 1.1268 0.12459 0.15718-0.01195 0.2214-0.30343 0.14271-0.29148-0.0787-0.84923 0.17304-1.2395 0.55941-0.39022 0.38637-0.9571 0.77256-1.2597 0.8582-0.30262 0.0856-0.70552 0.36371-0.89534 0.61795s-0.59884 0.53282-0.90893 0.61907c-0.31009 0.0862-0.73203 0.4042-0.93766 0.70656-0.20562 0.30237-0.496 0.45331-0.6453 0.33543-0.1493-0.11788-0.25307-0.0155-0.2306 0.22752 0.02247 0.24303-0.14102 0.3557-0.36332 0.25039-0.22229-0.10531-0.38991-0.0373-0.37249 0.15122 0.01743 0.18848-0.39042 0.47972-0.90633 0.6472-0.51591 0.16749-0.92242 0.47323-0.90335 0.67943 0.01906 0.20619-0.14721 0.28874-0.36951 0.18343-0.22229-0.10531-0.3874-0.0101-0.3669 0.21158 0.0205 0.22167-0.12173 0.32772-0.31606 0.23566-0.19433-0.0921-0.77006 0.26441-1.2794 0.79215-0.50934 0.52775-0.9354 0.85859-0.94681 0.73522-0.01141-0.12338-0.84755 0.70825-1.8581 1.848-1.0562 1.1913-2.2641 3.1307-2.8411 4.5616l-1.0037 2.4892-0.29424-2.9428zm91.386-16.66c-0.15327-0.19338-5e-3 -0.26639 0.34783-0.17116 0.68667 0.18538 0.83214 0.43385 0.2804 0.47891-0.19851 0.0162-0.48122-0.12228-0.62823-0.30775zm-3.616-1.4608c-1.3355-0.65092-3.9669-1.8372-5.8475-2.6362-1.8806-0.79902-5.2334-2.2635-7.4506-3.2543s-5.1122-2.2338-6.4333-2.7621c-1.3212-0.52829-3.496-1.4795-4.8331-2.1139-1.337-0.63437-6.7798-3.0462-12.095-5.3596s-11.296-4.928-13.291-5.8101-5.0758-2.2316-6.8472-2.9988c-5.1031-2.2101-11.029-4.993-10.915-5.1253 0.12714-0.14625 2.2114 0.70016 4.4232 1.7963 0.89106 0.44158 3.6131 1.6682 6.0491 2.7258 2.4359 1.0576 6.5148 2.8516 9.0641 3.9867 5.0296 2.2393 14.513 6.3807 19.331 8.4418 1.6598 0.71005 3.7452 1.6331 4.634 2.0513 0.88889 0.41816 4.7865 2.1325 8.6613 3.8097 14.733 6.3773 19.02 8.3378 18.361 8.3975-0.2108 0.019-1.476-0.49782-2.8115-1.1487zm-63.263 2.3195c-0.85401-0.24552-0.60156-0.79998 0.40155-0.88191 0.59666-0.0487 0.97781 0.12597 1.0089 0.46243 0.0498 0.53824-0.46493 0.6913-1.4105 0.41948zm-3.0449-1.5832c0.46672-0.1247 1.2434-0.18814 1.7261-0.14098 0.48261 0.0472 0.10075 0.14918-0.84859 0.22672-0.94934 0.0775-1.3442 0.0389-0.87748-0.0857zm24.619-14.83c-0.36512-0.18174-0.42553-0.31956-0.15135-0.3453 0.25098-0.0234 0.57799 0.11069 0.72671 0.29831 0.33569 0.42353 0.20291 0.43438-0.57536 0.047zm-41.603-1.9354c0.26726-0.12676 0.59928-0.14097 0.73781-0.0316 0.13853 0.10939-0.08014 0.21309-0.48593 0.23046-0.44844 0.0192-0.54723-0.0588-0.25188-0.19887zm-2.1945-8.729-0.36718-5.1309 2.1367-1.37c1.1752-0.75349 2.2834-1.382 2.4626-1.3966 0.17922-0.01464 0.48086 1.0971 0.6703 2.4705l0.34444 2.4971 2.7252-1.8743c1.4989-1.0309 3.3-2.2411 4.0025-2.6894 3.0833-1.9677 4.175-2.8316 4.3743-3.4615 0.18112-0.57242 0.22542-0.58477 0.29497-0.08226 0.04503 0.32523-0.47925 1.1422-1.165 1.8155-1.2292 1.2068-1.2374 1.241-0.58222 2.4168 0.44094 0.79127 0.9674 1.2084 1.5642 1.2393 0.70567 0.0366 0.15458 0.5316-2.5568 2.2966-1.901 1.2375-5.5171 3.6168-8.0358 5.2874-2.5187 1.6706-4.7868 3.0543-5.0402 3.075-0.34203 0.0279-0.5554-1.2847-0.82796-5.0933zm-8.381-8.4188c0.07963-0.26051 0.50941-0.72572 0.95507-1.0338 0.7728-0.53421 0.77132-0.51272-0.03189 0.46444-0.94036 1.144-1.1356 1.2644-0.92319 0.56935zm14.888-2.8265c0.46672-0.12469 1.2435-0.18813 1.7261-0.14097 0.48261 0.04716 0.10075 0.14918-0.84859 0.22672-0.94934 0.07753-1.3442 0.03895-0.87748-0.08574zm-19.522 0.98715c-0.0069-0.07486 0.26889-0.38342 0.61292-0.68569 0.56691-0.4981 0.58165-0.48646 0.1574 0.12428-0.44556 0.64142-0.74289 0.85812-0.77032 0.56141zm2.8854-2.2322c0.48951-0.45302 1.8782-1.4217 3.0859-2.1526 2.1447-1.2979 3.8416-2.4139 12.022-7.9066 6.2494-4.196 7.5788-5.0304 7.358-4.6186-0.11291 0.21053-1.4778 1.2171-3.0331 2.2368-1.5553 1.0197-4.7115 3.1117-7.0138 4.6488-4.4811 2.9917-8.5342 5.6297-11.483 7.4736-1.3345 0.83451-1.5869 0.92038-0.93671 0.31866zm25.752-7.4156c-0.31204-3.3706-0.38642-4.8028-0.16518-3.1825 0.22125 1.6202 0.4766 4.378 0.56741 6.1284 0.09085 1.7504-0.09018 0.42474-0.40227-2.9459zm-3.9922 3.0502c-0.15583-1.6853-0.1535-2.3802 0.0052-1.5441 0.15867 0.83607 0.28616 2.215 0.28332 3.0642-0.0028 0.84926-0.13266 0.1652-0.28849-1.5201zm-6.0352-1.116c-0.0092-0.09914 0.31249-0.38208 0.7148-0.62877 0.40231-0.24669 0.73897-0.36741 0.74813-0.26827 0.0092 0.09914-0.31249 0.38208-0.7148 0.62877-0.40231 0.24668-0.73896 0.36741-0.74813 0.26827zm2.076-1.5115c0.23741-0.26762 0.53668-0.40366 0.66504-0.30232 0.12836 0.10135-0.06588 0.32031-0.43165 0.48658-0.52858 0.24028-0.57646 0.20247-0.23338-0.18427z" fill="#a89c7d"/><path d="m111.98 223.96c-0.77826-0.37098-1.8961-0.93076-2.484-1.244-0.58796-0.31319-2.5844-1.2151-4.4365-2.0042-3.4353-1.4637-9.5348-4.1062-11.964-5.1832-15.012-6.6557-13.748-5.9411-13.927-7.8724-0.20199-2.1846-0.94884-2.8667-2.6867-2.4539-2.0447 0.4857-4.3126 1.8668-19.674 11.981-2.1314 1.4034-4.3321 2.5889-4.8906 2.6345-0.59591 0.0487-3.6344-1.1061-7.3549-2.7951-3.4867-1.5829-8.6933-3.8839-11.57-5.1133-7.7253-3.3012-9.4728-4.2268-9.5497-5.058-0.06814-0.73699 1.4811-2.6267 2.2017-2.6856 0.22096-0.0181 2.4573-1.4193 4.9696-3.114 6.535-4.4081 6.7392-4.4926 9.0785-3.7595 1.6875 0.52883 1.965 0.53039 2.427 0.0136 0.28686-0.32093 0.46083-0.89147 0.3866-1.2679-0.07423-0.37641-1.7869-17.875-3.806-38.886-2.881-29.981-3.5856-38.398-3.2741-39.113 0.41177-0.9461 2.5474-2.5426 8.7641-6.5519 2.006-1.2937 5.1207-3.3435 6.9217-4.5551 1.801-1.2116 4.8614-3.2477 6.801-4.5246 1.9395-1.2769 4.5891-3.0213 5.8879-3.8765 1.2988-0.85522 2.6535-1.5788 3.0105-1.608 0.35701-0.0292 1.5272 0.27545 2.6004 0.6769 1.7978 0.67247 1.9768 0.67929 2.2746 0.0866 0.22534-0.44842 0.46057 0.80329 0.77658 4.1324 0.30355 3.1978 0.59136 4.7644 0.87113 4.7415 0.36113-0.0295 3.8328-2.2679 14.192-9.1503 1.3017-0.86482 4.9855-3.2984 8.1862-5.408l5.8195-3.8356 1.4172 0.59721c0.77944 0.32847 4.435 1.9282 8.1234 3.555 3.6884 1.6268 9.4894 4.1781 12.891 5.6694s10.46 4.5873 15.685 6.8799c5.2253 2.2925 12.294 5.3886 15.708 6.8801l6.2079 2.7119 0.56356 4.9322c0.37026 3.2405 0.42667 4.9434 0.16445 4.9648-0.39882 0.0326-9.3679-3.8404-31.002-13.387-17.4-7.6782-28.676-12.613-28.799-12.603-0.0607 5e-3 -2.3801 1.5209-5.1542 3.3688-11.371 7.5741-22.392 14.818-22.8 14.985-0.34301 0.14044 2.831 37.092 3.1836 37.063 0.21239-0.0174 4.0257-2.5118 12.338-8.0702 1.101-0.73626 4.9537-3.2693 8.5615-5.6289 3.6079-2.3596 6.8396-4.5548 7.1817-4.8781 0.55959-0.52889 0.54392-1.432-0.15617-9.0037-0.42797-4.6287-0.89057-8.4066-1.028-8.3954-0.13742 0.0112-2.8414 1.744-6.0088 3.8505l-5.7589 3.8301 0.15549 1.8104 0.15548 1.8104-2.1465 1.3488c-1.1806 0.74185-2.254 1.3576-2.3855 1.3683-0.13146 0.0107-0.4405-2.1596-0.68676-4.823l-0.44774-4.8425 3.001-2.0268c11.65-7.8678 13.401-8.9122 14.394-8.5813 0.53009 0.17671 4.82 2.025 9.5331 4.1072s12.92 5.6944 18.237 8.0269 11.753 5.1645 14.302 6.2933c4.0827 1.8081 12.302 5.407 25.075 10.979 2.9537 1.2885 3.875 1.8535 3.712 2.2764-0.11921 0.30939-0.20024 1.4791-0.18007 2.5993 0.0365 2.0279 0.0444 2.0416 1.8134 3.1463 2.4945 1.5577 6.4005 3.3406 19.327 8.8218 4.1119 1.7436 3.6773 0.34033 5.1973 16.78 1.2805 13.849 1.3053 14.433 0.63523 14.984-0.38349 0.31493-0.79789 0.58082-0.9209 0.59086-0.12301 0.0101-1.5786-0.57477-3.2347-1.2996-1.656-0.72483-4.8231-2.107-7.0378-3.0716-2.3143-1.0079-4.7487-2.3812-5.7242-3.2292-2.0811-1.8091-3.8453-2.1413-5.0165-0.94472-0.42857 0.43788-1.3572 1.1287-2.0635 1.5351-0.70637 0.40645-3.5778 2.2664-6.381 4.1333-2.8032 1.8668-5.8356 3.8671-6.7387 4.445-0.90308 0.5779-2.7073 1.7543-4.0094 2.6142-1.3021 0.85989-3.1066 2.0335-4.01 2.6079s-1.8828 1.267-2.1765 1.539c-0.29368 0.272-2.0959 1.4699-4.005 2.6619-1.9091 1.1921-5.436 3.4868-7.8376 5.0993s-5.1065 3.393-6.0109 3.9565c-0.9044 0.56353-2.5445 1.6348-3.6446 2.3806s-3.6402 2.4281-5.6446 3.7384-5.4217 3.5922-7.594 5.0707c-4.6018 3.1322-6.2692 3.6349-8.5113 2.5661zm-28.438-144.56-0.44931-4.8594 1.9134-1.2499c2.7312-1.7841 2.9066-1.7362 3.0319 0.82868 0.05827 1.1924 0.21278 2.2524 0.34336 2.3555 0.13058 0.10311 2.0985-1.0411 4.3731-2.5427 4.0493-2.6732 4.1398-2.712 4.3353-1.8597 0.10982 0.47875 0.64977 1.2542 1.1999 1.7231l1.0002 0.85268-2.6212 1.7135c-1.4417 0.94241-4.7035 3.0902-7.2484 4.7728-2.5449 1.6827-4.8076 3.0741-5.028 3.0921-0.25893 0.0211-0.55993-1.6878-0.85016-4.8267z" fill="#0990d4"/><path d="m111.98 223.96c-0.77826-0.37098-1.8961-0.93076-2.484-1.244-0.58796-0.31319-2.5844-1.2151-4.4365-2.0042-3.4353-1.4637-9.5348-4.1062-11.964-5.1832-15.012-6.6557-13.748-5.9411-13.927-7.8724-0.20199-2.1846-0.94884-2.8667-2.6867-2.4539-2.0447 0.4857-4.3126 1.8668-19.674 11.981-2.1314 1.4034-4.3321 2.5889-4.8906 2.6345-0.59591 0.0487-3.6344-1.1061-7.3549-2.7951-3.4867-1.5829-8.6933-3.8839-11.57-5.1133-7.7253-3.3012-9.4728-4.2268-9.5497-5.058-0.06814-0.73699 1.4811-2.6267 2.2017-2.6856 0.22096-0.0181 2.4573-1.4193 4.9696-3.114 6.535-4.4081 6.7392-4.4926 9.0785-3.7595 1.6875 0.52883 1.965 0.53039 2.427 0.0136 0.28686-0.32093 0.46083-0.89147 0.3866-1.2679-0.07423-0.37641-1.7869-17.875-3.806-38.886-2.881-29.981-3.5856-38.398-3.2741-39.113 0.41177-0.9461 2.5474-2.5426 8.7641-6.5519 2.006-1.2937 5.1207-3.3435 6.9217-4.5551 1.801-1.2116 4.8614-3.2477 6.801-4.5246 1.9395-1.2769 4.5891-3.0213 5.8879-3.8765 1.2988-0.85522 2.6535-1.5788 3.0105-1.608 0.35701-0.0292 1.5272 0.27545 2.6004 0.6769 1.7978 0.67247 1.9768 0.67929 2.2746 0.0866 0.22534-0.44842 0.46057 0.80329 0.77658 4.1324 0.30355 3.1978 0.59136 4.7644 0.87113 4.7415 0.36113-0.0295 3.8328-2.2679 14.192-9.1503 1.3017-0.86482 4.9855-3.2984 8.1862-5.408l5.8195-3.8356 1.4172 0.59721c0.77944 0.32847 4.435 1.9282 8.1234 3.555 3.6884 1.6268 9.4894 4.1781 12.891 5.6694s10.46 4.5873 15.685 6.8799c5.2253 2.2925 12.294 5.3886 15.708 6.8801l6.2079 2.7119 0.56356 4.9322c0.37026 3.2405 0.42667 4.9434 0.16445 4.9648-0.39882 0.0326-9.3679-3.8404-31.002-13.387-17.4-7.6782-28.676-12.613-28.799-12.603-0.0607 5e-3 -2.3801 1.5209-5.1542 3.3688-11.371 7.5741-22.392 14.818-22.8 14.985-0.34301 0.14044 2.831 37.092 3.1836 37.063 0.21239-0.0174 4.0257-2.5118 12.338-8.0702 1.101-0.73626 4.9537-3.2693 8.5615-5.6289 3.6079-2.3596 6.8396-4.5548 7.1817-4.8781 0.55959-0.52889 0.54392-1.432-0.15617-9.0037-0.42797-4.6287-0.89057-8.4066-1.028-8.3954-0.13742 0.0112-2.8414 1.744-6.0088 3.8505l-5.7589 3.8301 0.15549 1.8104 0.15548 1.8104-2.1465 1.3488c-1.1806 0.74185-2.254 1.3576-2.3855 1.3683-0.13146 0.0107-0.4405-2.1596-0.68676-4.823l-0.44774-4.8425 3.001-2.0268c11.65-7.8678 13.401-8.9122 14.394-8.5813 0.53009 0.17671 4.82 2.025 9.5331 4.1072s12.92 5.6944 18.237 8.0269 11.753 5.1645 14.302 6.2933c4.0827 1.8081 12.302 5.407 25.075 10.979 2.9537 1.2885 3.875 1.8535 3.712 2.2764-0.11921 0.30939-0.20024 1.4791-0.18007 2.5993 0.0365 2.0279 0.0444 2.0416 1.8134 3.1463 2.4945 1.5577 6.4005 3.3406 19.327 8.8218 4.1119 1.7436 3.6773 0.34033 5.1973 16.78 1.2805 13.849 1.3053 14.433 0.63523 14.984-0.38349 0.31493-0.79789 0.58082-0.9209 0.59086-0.12301 0.0101-1.5786-0.57477-3.2347-1.2996-1.656-0.72483-4.8231-2.107-7.0378-3.0716-2.3143-1.0079-4.7487-2.3812-5.7242-3.2292-2.0811-1.8091-3.8453-2.1413-5.0165-0.94472-0.42857 0.43788-1.3572 1.1287-2.0635 1.5351-0.70637 0.40645-3.5778 2.2664-6.381 4.1333-2.8032 1.8668-5.8356 3.8671-6.7387 4.445-0.90308 0.5779-2.7073 1.7543-4.0094 2.6142-1.3021 0.85989-3.1066 2.0335-4.01 2.6079s-1.8828 1.267-2.1765 1.539c-0.29368 0.272-2.0959 1.4699-4.005 2.6619-1.9091 1.1921-5.436 3.4868-7.8376 5.0993s-5.1065 3.393-6.0109 3.9565c-0.9044 0.56353-2.5445 1.6348-3.6446 2.3806s-3.6402 2.4281-5.6446 3.7384-5.4217 3.5922-7.594 5.0707c-4.6018 3.1322-6.2692 3.6349-8.5113 2.5661zm4.8781-11.774c1.1453-0.56378 6.3491-3.9577 38.476-25.094 6.1112-4.0206 11.718-7.9217 12.46-8.6691 2.5797-2.5992 2.5526-2.2985 1.4218-15.767-0.55808-6.6468-0.96345-12.446-0.90083-12.887 0.16836-1.1862 1.2649-1.4218 3.5931-0.77169 1.9573 0.54652 3.5168 0.41742 3.4518-0.28576-0.0161-0.17364-2.2571-1.3704-4.9801-2.6595l-4.9509-2.3438 1.3978 16.205 1.3978 16.205-3.3702 2.1703c-5.5128 3.5501-9.2153 5.9754-27.964 18.318-5.5232 3.636-12.892 8.481-18.356 12.069-4.4932 2.9503-5.1512 3.2778-5.8817 2.9277-2.9296-1.404-8.7839-3.7256-8.9438-3.5467-0.39747 0.44466 1.2138 2.2482 2.707 3.03 4.1016 2.1476 7.5708 2.5126 10.443 1.0988zm-32.018-3.9114c0.39086-0.30727 13.393-8.8968 28.893-19.088 15.501-10.191 28.791-18.963 29.534-19.494 1.7429-1.2447 3.027-2.9777 3.5129-4.7409 0.5357-1.944-0.75411-16.009-1.6347-17.826-1.3323-2.7491-6.962-5.6736-10.049-5.2204l-1.684 0.24721 9.6319 4.2984 1.6694 19.822-3.2816 2.1264c-1.8049 1.1695-5.4947 3.5837-8.1995 5.3648-2.7048 1.7811-6.4343 4.2366-8.2876 5.4566-1.8534 1.22-4.8861 3.2163-6.7395 4.4363-1.8534 1.22-5.501 3.6192-8.1059 5.3317s-6.2936 4.1383-8.1971 5.3907c-1.9035 1.2524-6.8222 4.4818-10.931 7.1763-9.5386 6.2562-10.27 6.7839-9.9553 7.1813 0.39067 0.49288 3.0118 0.17571 3.824-0.46272zm28.612-7.7914c5.0259-3.2863 13.728-8.9975 19.338-12.691 5.6101-3.694 13.521-8.8874 17.58-11.541l7.3799-4.8248-2.98-32.23-1.3113-0.59795c-0.72122-0.32887-5.6608-2.4978-10.977-4.8198-5.3161-2.322-12.703-5.5686-16.416-7.2147l-6.7501-2.9928 1.4768 15.921 1.4768 15.921 3.116 1.3585c1.7138 0.74716 5.3392 2.3622 8.0565 3.589l4.9405 2.2306-1.2129-13.118-3.6113-1.4392-0.20956-2.2025c-0.28159-2.9594-0.8701-3.6786-1.498-1.8306-0.66863 1.9679-0.52405 2.6055 1.2748 5.6223 1.2579 2.1096 1.6437 3.1484 1.8009 4.8484 0.32805 3.5481-0.8407 3.8588-5.8326 1.5506-4.8325-2.2345-4.6131-1.6698-5.8515-15.063-0.92808-10.037-0.98966-11.535-0.49705-12.086 0.35308-0.395 0.87618-0.5689 1.406-0.46743 0.93221 0.17853 22.453 9.4688 24.979 10.783 3.4131 1.776 3.2166 1.125 4.6733 15.48 1.4329 14.12 1.4075 15.13-0.4194 16.692-0.63405 0.5421-8.4486 5.7788-17.366 11.637-28.994 19.048-30.512 20.08-31.607 21.48-1.121 1.4334-1.2967 2.0803-0.54843 2.0192 0.24801-0.0203 4.563-2.7256 9.5889-6.012zm-58.492 6.5885c1.0132-0.53652 2.3676-1.4726 3.0099-2.0802 1.1582-1.0957 2.3924-3.2983 1.8211-3.2501-0.26397 0.0223-4.4677 2.6726-7.6592 4.8289l-1.1633 0.78595-2.7967-1.1379c-2.383-0.96955-2.7587-1.0377-2.5398-0.46054 0.36117 0.95214 2.3403 2.3698 3.6945 2.6463 1.5032 0.30696 3.3728-0.13523 5.6335-1.3324zm25.167-5.2725c2.9398-1.822 3.9968-2.6548 3.6023-2.8382-0.30714-0.14274-4.9988-2.2012-10.426-4.5743-5.4271-2.3731-12.226-5.3695-15.108-6.6586l-5.2408-2.3438-5.7635-62.334 9.0886-6.1978-1.6524 0.0227c-3.391 0.0466-7.9974 3.5127-9.0008 6.7728-0.50249 1.6325-0.3629 3.634 2.1458 30.766 3.0222 32.686 2.7587 31.217 5.9897 33.391 0.8732 0.58746 5.4988 2.7857 10.279 4.885 12.615 5.54 13.525 6.0008 13.607 6.8892 0.03972 0.42957-0.61929 1.512-1.5098 2.4799-1.6162 1.7567-2.0603 3.1683-0.82136 2.6111 0.35712-0.16062 2.5216-1.4524 4.81-2.8707zm-30.678 0.0678c0.2158-0.40237-6.9199-3.4385-7.8943-3.3589-1.0884 0.0889-0.82668 0.59818 1.2621 2.4562 1.0517 0.9355 2.0495 2.1429 2.2173 2.6831l0.30513 0.98219 1.9685-1.2203c1.0827-0.67116 2.0463-1.3652 2.1413-1.5423zm10.196-1.8872c-0.46663-1.2302-3.2735-2.968-8.3303-5.1577-2.7678-1.1985-5.4288-2.2392-5.9134-2.3126-1.0223-0.1549-2.0098 0.21624-1.9617 0.73726 0.03638 0.39343 15.379 7.3967 16.203 7.3958 0.1395-1.7e-4 0.14056-0.2984 0.0024-0.66276zm39.157-10.44c2.6751-1.7806 9.7034-6.3823 15.618-10.226 5.915-3.8438 10.881-7.1134 11.035-7.2657 0.15424-0.15239-1.6727-1.102-4.0598-2.1103-2.3871-1.0083-7.0603-3.0378-10.385-4.5099-3.3245-1.4722-8.2914-3.6533-11.038-4.847l-4.9932-2.1704-1.3137 0.8357c-4.4346 2.8211-13.142 8.6082-13.053 8.676 0.05783 0.0444 2.4981 1.1201 5.4227 2.3905 2.9247 1.2704 5.6734 2.4803 6.1082 2.6887 0.65949 0.31607 1.0682 0.21012 2.4634-0.63862l1.6728-1.0175 2.4179 1.0038c2.4719 1.0263 3.0193 0.80871 1.6964-0.67434-0.96969-1.0871-3.1571-1.6864-5.4665-1.4978-2.4116 0.19696-4.1496-0.14266-6.2965-1.2303-2.631-1.3329-1.9563-2.7374 2.6494-5.5151 2.9298-1.7669 4.5703-2.0255 6.9955-1.1027 1.5243 0.58001 17.296 7.4838 19.533 8.5504 1.1586 0.55233 1.7009 1.9041 1.0509 2.6199-0.45924 0.50573-12.095 8.2304-20.338 13.502-4.2678 2.7293-5.4046 3.0142-8.0502 2.0171-2.2839-0.86078-22.879-9.9632-23.675-10.464-0.34887-0.21936-0.96554-0.7759-1.3704-1.2368-0.67685-0.77054-0.93908-3.0136-3.2597-27.883-1.388-14.875-2.7263-27.791-2.974-28.703-0.24767-0.91141-0.82454-2.0902-1.2819-2.6194l-0.83164-0.96234 0.05293 3.2647c0.02911 1.7956 1.1862 15.721 2.5714 30.945l2.5184 27.68 1.7139 0.77254c1.6787 0.75666 5.6679 2.5095 19.437 8.5406 3.766 1.6496 7.4862 3.326 8.2671 3.7255 0.78088 0.39943 1.6175 0.71992 1.8591 0.71219 0.24164-8e-3 2.6281-1.4709 5.3032-3.2515zm88.409-8.5322c0.2243-0.30418 0.40642-1.5041 0.40471-2.6664-5e-3 -3.3447 0.0899-3.6172 1.9848-5.7034l1.7939-1.9751-0.37827-2.2187c-0.36401-2.135-0.45818-2.2766-2.4973-3.7541-2.8552-2.0689-5.2386-2.8907-7.4487-2.5682l-1.7387 0.25368 10.08 4.5778 0.24185 2.6158c0.13302 1.4387 0.10917 2.7087-0.053 2.8222-0.16218 0.11354-0.83178-0.075-1.488-0.41909-0.65623-0.34404-1.69-0.82658-2.2972-1.0723l-1.1041-0.44676 0.5175 5.597c0.41734 4.5137 0.61978 5.5886 1.0459 5.5538 0.29061-0.0237 0.71191-0.29203 0.93621-0.59621zm-7.4039-8.3493c-0.35141-4.4496-0.77968-8.4797-0.95175-8.9558-0.31116-0.86089-0.31668-0.85853-1.0343 0.44309-0.66483 1.2058-0.68129 1.8557-0.20967 8.2758 0.44192 6.0157 0.61009 7.0846 1.2314 7.8266 1.5106 1.8041 1.6312 0.85452 0.96436-7.5898zm-83.148 7.0102c2.1915-1.279 4.5428-3.5423 4.7256-4.5488 0.0967-0.53232-0.0206-0.6395-0.48002-0.43859-0.85489 0.37388-4.3075 2.5324-6.3387 3.9628-0.94053 0.66235-1.9461 1.1695-2.2345 1.1271-0.28845-0.0425-4.5492-1.8532-9.4684-4.0238l-8.9439-3.9466-3.3956-36.725c-2.0644-22.327-3.5351-36.714-3.7514-36.696-0.19565 0.016-0.67395 0.48571-1.0629 1.0438-0.7043 1.0107-0.69422 1.1547 2.4987 35.664 2.1731 23.487 3.3794 35.086 3.7444 36.004 0.31345 0.78856 1.2717 1.9249 2.2924 2.7185 1.6516 1.2841 13.214 6.589 15.796 7.2471 1.7278 0.44043 4.4711-0.13501 6.6186-1.3883zm-13.119-100.27-0.44931-4.8594 1.9134-1.2499c2.7312-1.7841 2.9066-1.7362 3.0319 0.82868 0.05827 1.1924 0.21278 2.2524 0.34336 2.3555 0.13058 0.10311 2.0985-1.0411 4.3731-2.5427 4.0493-2.6732 4.1398-2.712 4.3353-1.8597 0.10982 0.47875 0.64977 1.2542 1.1999 1.7231l1.0002 0.85268-2.6212 1.7135c-1.4417 0.94241-4.7035 3.0902-7.2484 4.7728-2.5449 1.6827-4.8076 3.0741-5.028 3.0921-0.25893 0.0211-0.55993-1.6878-0.85016-4.8267z" fill="#1a83ab"/><path d="m111.48 220.64c-17.652-7.7786-24.275-10.751-24.737-11.102-1.3763-1.0459-0.18051-2.1337 8.6814-7.8969 2.6065-1.6951 7.5263-4.913 10.933-7.1508 7.6984-5.0572 12.631-8.2878 14.739-9.6538 0.89191-0.57788 2.4488-1.6081 3.4598-2.2895 2.1332-1.4377 1.6553-1.1226 12.04-7.9385 4.4087-2.8937 8.4482-5.7237 8.9767-6.289 1.915-2.0482 2.085-3.6479 1.2951-12.191-0.81067-8.7677-1.2796-10.239-3.8242-11.996-5.0947-3.5195-10.293-3.6456-11.625-0.28211-0.69869 1.7639-0.18451 3.8716 1.5694 6.4332 1.5152 2.213 2.0491 5.0623 1.1914 6.3582-0.48015 0.7255-0.57576 0.7134-3.5904-0.45459-3.3484-1.2973-4.8359-2.269-5.5246-3.609-0.6148-1.1962-2.4956-21.928-2.0733-22.854 0.52407-1.1498 1.6962-0.98455 5.63 0.79392 2.0158 0.91133 4.3875 1.9477 5.2706 2.303 0.88308 0.35533 2.1509 0.90106 2.8174 1.2127 0.66649 0.31167 1.8459 0.84183 2.621 1.1781 0.77504 0.33629 2.2257 0.97805 3.2236 1.4261s2.8451 1.2185 4.1048 1.712c2.8829 1.1295 5.013 2.7939 5.4738 4.2769 0.19608 0.63116 0.85759 6.567 1.47 13.191 1.1925 12.897 1.1671 13.582-0.56726 15.27-0.4639 0.45151-1.9909 1.577-3.3934 2.5012-1.4024 0.92413-4.3983 2.9144-6.6575 4.4228-2.2592 1.5084-4.1659 2.7473-4.2371 2.7531-0.1256 0.0103-6.4055 4.1772-7.4985 4.9755-0.29867 0.21814-1.3581 0.8926-2.3542 1.4988s-2.3904 1.5147-3.0983 2.0189c-0.70792 0.50418-3.0913 2.094-5.2964 3.5328-14.153 9.2352-15.142 9.9081-16.262 11.065-3.0454 3.1436-0.9495 6.8685 5.0477 8.9708 4.5412 1.5919 6.2802 0.97045 16.764-5.9913 2.8037-1.8617 5.8364-3.8588 6.7393-4.438 0.90295-0.57919 2.6805-1.7661 3.9502-2.6376s2.374-1.5899 2.4542-1.5964c0.0802-7e-3 1.2139-0.75294 2.5192-1.6586 1.3054-0.9057 2.4601-1.6538 2.566-1.6625 0.10596-9e-3 0.80125-0.44962 1.5451-0.97993 1.5211-1.0844 10.764-7.1853 17.385-11.475 7.8605-5.0928 7.8433-5.0375 6.4064-20.578-0.68049-7.3597-0.91049-11.395-0.67852-11.904 0.4168-0.91447 2.0197-0.88772 3.7708 0.063 0.59659 0.32389 1.899 0.93127 2.8942 1.3497 3.4459 1.4489 4.7828 2.0388 6.4122 2.8291 0.90023 0.43664 1.7302 0.78625 1.8444 0.77692 0.11419-9e-3 0.88689 0.31647 1.7171 0.72399 0.83021 0.40752 3.7364 1.7408 6.4582 2.963 2.7218 1.2221 5.1613 2.5282 5.421 2.9023 0.53076 0.76458 2.6467 21.942 2.3264 23.284-0.11688 0.48976-0.5076 0.83129-0.99671 0.87124-0.75238 0.0614-6.6421-2.1622-7.1151-2.6862-0.11841-0.13119-0.63672-0.40519-1.1518-0.60888-1.2975-0.5131-2.2119-2.3322-2.4462-4.8665-0.19449-2.1035-0.16396-2.1817 1.6728-4.2873 2.0817-2.3864 2.4536-3.7443 1.6163-5.902-0.74925-1.9308-2.9526-3.7182-6.0112-4.8764-2.9141-1.1034-4.8979-1.1245-6.6706-0.0709-1.8579 1.1044-2.1544 3.1019-1.5055 10.145 0.51345 5.574 0.50039 6.0697-0.19615 7.3987-0.6428 1.2265-2.7705 2.7563-15.309 11.007-8.0091 5.2702-15.918 10.492-17.575 11.604-1.6573 1.1121-3.1012 2.0292-3.2088 2.038-0.10755 9e-3 -0.63507 0.35873-1.1723 0.77766-0.89369 0.69695-10.658 7.1379-14.701 9.6979-0.93382 0.59121-2.3856 1.5661-3.2263 2.1664-2.6023 1.8584-6.346 3.8416-7.5465 3.9976-0.6301 0.0819-1.8708-0.17064-2.7572-0.56122zm-1.9306-10.436c-2.1038-0.91725-4.3171-1.8138-4.9184-1.9924-0.60133-0.17856-1.112-0.52642-1.1348-0.77304-0.0228-0.24661 1.724-1.5737 3.8819-2.949 2.1578-1.3754 5.8901-3.7996 8.294-5.3872s8.3056-5.4709 13.115-8.6296c4.8093-3.1587 12.269-8.0646 16.576-10.902 4.3076-2.8374 8.8588-5.8103 10.114-6.6064l2.2816-1.4475-1.5195-16.278-1.5195-16.278-3.9062-1.6495c-5.7144-2.413-22.145-9.5833-27.205-11.872-2.4049-1.0879-4.3951-1.9228-4.4227-1.8555-0.0276 0.0673 0.69969 7.2923 1.6162 16.056l1.6664 15.933 6.449 2.872c3.547 1.5796 7.1301 3.1843 7.9624 3.5659l1.5134 0.69394-1.2306-13.309-3.5538-1.4163-0.37068-2.6647c-0.22348-1.6064-0.2188-2.7338 0.0118-2.8387 0.21036-0.0957 2.355 0.73102 4.7658 1.8372 2.4109 1.1062 4.5342 1.999 4.7185 1.9839 0.1854-0.0151 0.69969 4.4124 1.1514 9.9124l0.8163 9.9397-8.3801 5.5011c-7.7471 5.0856-13.798 9.0633-32.607 21.436-16.411 10.796-23.495 15.342-23.967 15.38-0.31121 0.0254-0.54264-0.4108-0.61117-1.1519-0.18038-1.9508-0.9719-2.5052-2.933-2.0544-1.659 0.38137-1.6532 0.37427 1.4067-1.7257 1.6899-1.1598 3.8839-2.5822 4.8754-3.1609 0.99155-0.5787 1.6402-1.1712 1.4415-1.3168-0.19871-0.14552-3.986-1.8485-8.4161-3.7845-4.4301-1.936-11.318-4.954-15.306-6.7068l-7.2511-3.1869-5.7583-62.278 4.18-2.8595c2.299-1.5727 4.4084-2.9017 4.6875-2.9534 0.42026-0.0778 0.99177 5.2406 3.3234 30.927l2.8158 31.021 1.7284 0.72148c2.0432 0.85283 8.5165 3.6909 20.552 9.0107 4.8144 2.128 8.9417 3.8536 9.1717 3.8348 0.23004-0.0188 2.3319-1.3165 4.6707-2.8838 2.3389-1.5673 9.3378-6.1585 15.553-10.203s11.422-7.4808 11.57-7.637-3.4935-1.9207-8.0919-3.9212c-4.5984-2.0005-11.535-5.0512-15.415-6.7793-6.7051-2.9868-7.0948-3.1119-7.8844-2.5305-0.45686 0.33641-3.5708 2.3957-6.9198 4.5762-3.349 2.1805-6.2179 4.1-6.3754 4.2654-0.2764 0.29043 11.49 5.6135 12.268 5.55 0.21105-0.0172 1.0145-0.44473 1.7855-0.95l1.4018-0.91865 2.1475 0.85923c3.1536 1.2618 3.4669 1.5572 2.4204 2.2825-1.8116 1.2557-8.2135 5.3023-8.4144 5.3187-0.11602 9e-3 -3.6372-1.5174-7.8248-3.3929-4.1876-1.8756-8.29-3.6687-9.1163-3.9847l-1.5024-0.57453-3.4183-37.034c-1.8802-20.369-3.3062-37.237-3.1692-37.484 0.1819-0.32859 0.758-0.25764 2.1347 0.2629 1.7419 0.65861 1.9103 0.66376 2.2099 0.0676 0.22672-0.45123 0.46062 0.79118 0.77757 4.1303 0.30355 3.1978 0.59136 4.7644 0.87113 4.7415 0.36113-0.0295 3.8328-2.2679 14.192-9.1503 1.3017-0.86482 4.9855-3.2984 8.1862-5.408l5.8195-3.8356 1.4172 0.59721c0.77944 0.32847 4.435 1.9282 8.1234 3.555 3.6884 1.6268 9.4894 4.1781 12.891 5.6694s10.46 4.5873 15.685 6.8799c5.2253 2.2925 12.294 5.3886 15.708 6.8801l6.2079 2.7119 0.56356 4.9322c0.37026 3.2405 0.42667 4.9434 0.16445 4.9648-0.39882 0.0326-9.3679-3.8404-31.002-13.387-17.4-7.6782-28.676-12.613-28.799-12.603-0.0607 5e-3 -2.3801 1.5209-5.1542 3.3688-11.371 7.5741-22.392 14.818-22.8 14.985-0.34301 0.14044 2.831 37.092 3.1836 37.063 0.21239-0.0174 4.0257-2.5118 12.338-8.0702 1.101-0.73626 4.9537-3.2693 8.5615-5.6289 3.6079-2.3596 6.8396-4.5548 7.1817-4.8781 0.55959-0.52889 0.54392-1.432-0.15617-9.0037-0.42797-4.6287-0.89057-8.4066-1.028-8.3954-0.13742 0.0112-2.8414 1.744-6.0088 3.8505l-5.7589 3.8301 0.15549 1.8104 0.15548 1.8104-2.1465 1.3488c-1.1806 0.74185-2.254 1.3576-2.3855 1.3683-0.13146 0.0107-0.4405-2.1596-0.68676-4.823l-0.44774-4.8425 3.001-2.0268c11.65-7.8678 13.401-8.9122 14.394-8.5813 0.53009 0.17671 4.82 2.025 9.5331 4.1072s12.92 5.6944 18.237 8.0269 11.753 5.1645 14.302 6.2933c4.0827 1.8081 12.302 5.407 25.075 10.979 2.9873 1.3032 3.8731 1.849 3.6964 2.2777-0.12781 0.3101-0.14201 1.578-0.0316 2.8175 0.11044 1.2396 0.11441 2.2597 9e-3 2.267-0.10562 7e-3 -2.4618-1.0236-5.2359-2.2908l-5.0439-2.3041 1.3853 16.135 1.3853 16.135-5.3668 3.4995c-4.9753 3.2442-12.913 8.4483-34.698 22.749-4.7093 3.0914-9.8944 6.5217-11.523 7.623-1.6282 1.1013-3.0231 2.0025-3.0998 2.0028-0.0767 2.8e-4 -1.8608-0.75-3.9646-1.6672zm-59.93 5.9737c-0.66189-0.26189-2.5797-1.0893-4.2619-1.8386-1.6821-0.74936-3.2447-1.3473-3.4722-1.3287-0.22758 0.0186-0.48439-0.10285-0.57069-0.26987-0.08629-0.16701-2.3295-1.2299-4.9848-2.362-8.4864-3.618-8.8956-4.092-5.5936-6.4797 4.889-3.5352 6.8413-4.2052 9.7104-3.3325 2.3882 0.72642 3.782 1.9448 4.2294 3.6973 0.57233 2.2414 1.8094 3.5907 3.9122 4.2672 2.2544 0.72524 3.9408 0.39873 6.935-1.3428 2.9407-1.7104 4.2911-3.0866 4.6572-4.7462 0.665-3.0148-0.76284-4.4437-7.4193-7.4247-6.1448-2.7519-7.4976-3.5365-8.1-4.698-0.66774-1.2874-6.8451-69.17-6.4332-70.694 0.34483-1.2759 2.0785-2.66 8.6827-6.9316 2.4571-1.5893 4.7114-3.0734 5.0095-3.2981 0.29807-0.22464 0.79044-0.54211 1.0942-0.70549 0.30373-0.16339 1.7801-1.1239 3.2809-2.1345 6.4209-4.3238 7.3928-4.6912 8.2092-3.1029 0.26046 0.50676 1.6871 14.238 3.4923 33.612 1.7521 18.805 3.248 33.236 3.5121 33.884 1.0793 2.6468 3.2463 4.1593 10.137 7.0752 0.44288 0.1874 2.3127 0.98035 4.1552 1.7621 4.5208 1.9181 6.5941 2.1762 9.2357 1.1498 3.9876-1.5495 7.1166-4.7427 6.9037-7.0454-0.14128-1.528-1.2722-2.9947-2.752-3.569-0.71279-0.27664-2.7347-0.50924-4.4932-0.51688-3.3342-0.0145-6.3867-0.9506-7.0075-2.149-0.38961-0.75209 1.1606-2.3398 3.9457-4.0413 2.7704-1.6924 4.4768-1.8593 7.1664-0.70074 6.245 2.69 14.153 6.1545 17.32 7.5874 1.4298 0.6471 2.0736 1.1687 2.2121 1.7924 0.22966 1.0341-0.52834 1.7419-4.776 4.4593-1.5794 1.0104-3.9371 2.5404-5.2392 3.3998-1.3022 0.85947-3.1061 2.0389-4.0088 2.621-0.90269 0.58205-2.6533 1.7598-3.8903 2.6172-3.6955 2.5615-5.8589 3.7032-7.2288 3.8151-0.94487 0.0772-3.3539-0.7897-8.9082-3.2056-12.848-5.5884-16.021-7.0417-17.517-8.0228l-1.44-0.9445-2.837-28.594c-2.5471-25.672-2.9149-28.724-3.5986-29.865-1.6392-2.7368-4.5568-3.0018-8.3951-0.76238-3.092 1.8039-4.6382 3.4146-5.2801 5.5001-0.50529 1.6417-0.36665 3.6205 2.1938 31.313l2.7332 29.561 1.0647 1.6402c1.3652 2.1031 3.1733 3.2234 9.2071 5.7044 0.84437 0.34719 3.2922 1.429 5.4396 2.404 2.1474 0.97499 4.1729 1.8558 4.5011 1.9573 0.32822 0.10151 1.8696 0.78402 3.4252 1.5167 2.1821 1.0277 2.8747 1.5435 3.0308 2.2573 0.21015 0.96074-0.64769 1.666-6.6337 5.4536-1.0376 0.65657-3.825 2.4856-6.1942 4.0644-11.217 7.475-12.08 7.8956-14.361 6.9933zm-1.598-9.9799c-1.2697-0.52031-2.3276-1.1464-2.3508-1.3914-0.02326-0.24494 0.96804-1.033 2.2029-1.7512l2.2452-1.3058-4.276-1.8664c-3.9598-1.7284-4.2362-1.9156-3.7387-2.5322 0.6193-0.76742 0.66219-1.6136 0.15135-2.9857-0.1985-0.53316-0.2374-0.97947-0.08644-0.9918 0.38574-0.0315 16.692 7.0166 17.406 7.5233 0.49537 0.35171 0.42153 0.51876-0.47942 1.0846-0.58574 0.36787-2.6504 1.6886-4.5881 2.9349-1.9377 1.2463-3.6703 2.2574-3.8502 2.2469-0.1799-0.0106-1.3659-0.4449-2.6356-0.96521zm136.57-24.523c-0.37729-0.38602-1.3123-0.68397-2.2765-0.72541l-1.6363-0.0703-0.94186-9.0039c-0.65648-6.2758-0.81888-9.0601-0.53601-9.1893 0.22322-0.10197 1.8439 0.49826 3.6015 1.3338s3.9618 1.8108 4.8981 2.1671l1.7024 0.64785 0.24931 2.6964c0.22457 2.4288 0.17541 2.7024-0.49519 2.7572-0.40948 0.0335-0.86792-0.0949-1.0188-0.2852-0.22733-0.28681-3.1369-1.5534-3.5038-1.5253-0.0612 5e-3 0.15459 2.3212 0.47946 5.1479 0.32489 2.8266 0.48432 5.4915 0.3543 5.9218-0.2331 0.77156-0.24536 0.77334-0.87668 0.12742zm-101.05-102.27-0.44931-4.8594 1.9134-1.2499c2.7312-1.7841 2.9066-1.7362 3.0319 0.82868 0.05827 1.1924 0.21278 2.2524 0.34336 2.3555 0.13058 0.10311 2.0985-1.0411 4.3731-2.5427 4.0493-2.6732 4.1398-2.712 4.3353-1.8597 0.10982 0.47875 0.64977 1.2542 1.1999 1.7231l1.0002 0.85268-2.6212 1.7135c-1.4417 0.94241-4.7035 3.0902-7.2484 4.7728-2.5449 1.6827-4.8076 3.0741-5.028 3.0921-0.25893 0.0211-0.55993-1.6878-0.85016-4.8267z" fill="#0a79a3"/><path d="m108.52 209.56c-2.4344-1.0773-4.4883-2.0938-4.5644-2.2589-0.076-0.16509 1.2208-1.1575 2.8817-2.2053 1.661-1.0478 5.5607-3.5804 8.666-5.6278s8.397-5.5298 11.759-7.7386c3.3622-2.2088 8.1167-5.3336 10.566-6.944 2.4488-1.6104 7.8961-5.1826 12.105-7.9382s7.7642-5.1957 7.9007-5.4224c0.13645-0.22675-0.45992-7.6172-1.3253-16.423l-1.5733-16.011-4.4336-1.9728c-2.4385-1.0851-9.9606-4.3816-16.716-7.3257-6.7552-2.9441-12.873-5.6266-13.594-5.9613l-1.3123-0.60841 1.4988 16.21 1.4988 16.21 8.0629 3.5611c4.4346 1.9586 8.1473 3.5542 8.2504 3.5457 0.10316-8e-3 -0.0897-3.0144-0.42865-6.68l-0.61623-6.6647-3.2369-1.57-0.23569-2.549c-0.12962-1.402-0.0957-2.506 0.0755-2.4534 0.17113 0.0526 2.3442 0.99204 4.8289 2.0876l4.5178 1.992 1.5775 19.114-2.9157 1.9042c-3.5271 2.3036-14.105 9.2477-27.144 17.82-26.793 17.614-33.983 22.303-34.718 22.638-0.55103 0.25187-0.66892 0.08-0.78171-1.1398-0.16885-1.8262-0.92916-2.3501-2.7744-1.9118-1.3758 0.3268-1.3631 0.3069 0.705-1.1069 1.1583-0.79181 3.3372-2.2121 4.842-3.1563 1.5048-0.94413 2.5824-1.8344 2.3946-1.9783-0.18777-0.14392-3.7848-1.7661-7.9934-3.6049-16.084-7.0272-18.594-8.1306-20.849-9.1645l-2.3228-1.065-5.5473-62.132 4.1868-2.7856c2.3027-1.5321 4.3147-2.8032 4.4709-2.8245 0.15626-0.0214 1.6207 13.936 3.2543 31.017l2.9702 31.056 7.051 3.1126c3.878 1.7119 10.901 4.8056 15.606 6.8748l8.555 3.7622 7.7468-5.0937c6.8621-4.512 14.667-9.6305 22.232-14.579 1.3529-0.88509 2.4544-1.6686 2.4477-1.7411-7e-3 -0.0725-2.3217-1.1287-5.1445-2.347-2.8228-1.2183-9.6172-4.1965-15.099-6.6182-5.4816-2.4217-10.22-4.4715-10.53-4.5552-0.30999-0.0837-2.7505 1.2922-5.4233 3.0576s-5.9113 3.8804-7.1965 4.7-2.3115 1.6346-2.2805 1.8111c0.03101 0.17652 2.8775 1.5556 6.3257 3.0646l6.2693 2.7437 1.3012-0.87257c0.71567-0.47991 1.5502-0.8929 1.8545-0.91775 0.79858-0.0652 4.5556 1.5586 4.5942 1.9857 0.043 0.47793-7.9201 5.6182-8.5683 5.5308-0.27737-0.0374-4.4189-1.7903-9.2033-3.8953l-8.699-3.8274-3.4651-37.476c-2.6951-29.148-3.3539-37.388-2.9648-37.081 0.27516 0.21725 0.75424 0.37427 1.0646 0.34892 0.31038-0.0254 0.92163 0.20859 1.3583 0.51987 0.75559 0.5386 0.81702 0.53023 1.2704-0.17318 0.4188-0.6497 0.52966-0.1637 0.91614 4.0162 0.29493 3.1898 0.57724 4.7441 0.85751 4.7212 0.36113-0.0295 3.8328-2.2679 14.192-9.1503 1.3017-0.86482 4.9855-3.2984 8.1862-5.408l5.8195-3.8356 1.4172 0.59721c0.77944 0.32847 4.435 1.9282 8.1234 3.555 3.6884 1.6268 9.4894 4.1781 12.891 5.6694s10.46 4.5873 15.685 6.8799c5.2253 2.2925 12.294 5.3886 15.708 6.8801l6.2079 2.7119 0.56356 4.9322c0.37026 3.2405 0.42667 4.9434 0.16445 4.9648-0.39882 0.0326-9.3679-3.8404-31.002-13.387-17.4-7.6782-28.676-12.613-28.799-12.603-0.0607 5e-3 -2.3801 1.5209-5.1542 3.3688-11.371 7.5741-22.392 14.818-22.8 14.985-0.34301 0.14044 2.831 37.092 3.1836 37.063 0.21239-0.0174 4.0257-2.5118 12.338-8.0702 1.101-0.73626 4.9537-3.2693 8.5615-5.6289 3.6079-2.3596 6.8396-4.5548 7.1817-4.8781 0.55959-0.52889 0.54392-1.432-0.15617-9.0037-0.42797-4.6287-0.89057-8.4066-1.028-8.3954-0.13742 0.0112-2.8414 1.744-6.0088 3.8505l-5.7589 3.8301 0.15549 1.8104 0.15548 1.8104-2.1465 1.3488c-1.1806 0.74185-2.254 1.3576-2.3855 1.3683-0.13146 0.0107-0.4405-2.1596-0.68676-4.823l-0.44774-4.8425 3.001-2.0268c11.65-7.8678 13.401-8.9122 14.394-8.5813 0.53009 0.17671 4.82 2.025 9.5331 4.1072s12.92 5.6944 18.237 8.0269 11.753 5.1645 14.302 6.2933c2.5488 1.1288 8.2586 3.6342 12.689 5.5677 11.862 5.1772 16.094 7.0382 16.247 7.1442 0.0752 0.0521-0.0379 0.47782-0.25138 0.9461-0.21343 0.46828-0.29685 1.6332-0.18537 2.5888 0.11146 0.95556 0.1313 1.7432 0.0441 1.7503-0.0872 7e-3 -2.458-1.0251-5.2684-2.2939-2.8104-1.2688-5.1768-2.3014-5.2588-2.2946-0.082 7e-3 0.48409 7.3488 1.2579 16.316l1.4069 16.304-3.8232 2.5385c-2.1028 1.3962-6.7755 4.465-10.384 6.8195s-7.2966 4.7848-8.1962 5.4005c-0.89958 0.6157-4.5876 3.049-8.1956 5.4073s-10.326 6.7715-14.93 9.8069c-4.6035 3.0355-8.5474 5.523-8.7641 5.5277-0.21679 5e-3 -2.3859-0.87274-4.8203-1.95zm-60.342-3.6392c-1.1637-0.51636-2.1277-1.0678-2.1423-1.2254-0.01457-0.1576 0.87931-0.83005 1.9864-1.4943 1.1071-0.66428 1.9503-1.3448 1.8738-1.5122-0.07653-0.16743-1.8441-1.0497-3.928-1.9605-2.0839-0.91087-3.8724-1.722-3.9744-1.8026-0.10203-0.0806 0.01608-0.41987 0.26248-0.75401 0.2464-0.33415 0.36199-1.2465 0.25686-2.0275-0.10513-0.78096-0.07962-1.429 0.05668-1.4402 0.1363-0.0111 3.1664 1.2691 6.7336 2.8449 3.5672 1.5758 7.2544 3.1845 8.1939 3.5747 1.9538 0.81162 2.0804 1.0594 0.94384 1.8484-3.9552 2.7457-7.2352 4.8276-7.6482 4.8548-0.27436 0.018-1.4509-0.38975-2.6146-0.9061zm136.29-24.519c-0.48034-0.44352-1.2021-0.64082-2.0816-0.56899l-1.3463 0.10995-0.83608-9.0425c-0.46899-5.0724-0.68266-9.0019-0.48665-8.95 0.19219 0.0509 2.3609 0.99068 4.8193 2.0884l4.4698 1.9959 0.23634 2.4324c0.27471 2.8272 0.10415 2.9323-2.5486 1.5702-1.0042-0.51559-1.9511-0.92789-2.1043-0.91624-0.15319 0.0118-0.0779 2.7074 0.16741 5.9905 0.42723 5.7184 0.41507 5.9407-0.28934 5.2903zm-100.93-102-0.44931-4.8594 1.9134-1.2499c2.7312-1.7841 2.9066-1.7362 3.0319 0.82868 0.05827 1.1924 0.21278 2.2524 0.34336 2.3555 0.13058 0.10311 2.0985-1.041 4.3731-2.5425l4.1357-2.73 0.21949 1.0716c0.12692 0.61967 0.64871 1.3358 1.2373 1.6981l1.0178 0.62648-2.6586 1.7383c-1.4622 0.95607-4.7409 3.115-7.2858 4.7977-2.5449 1.6827-4.8076 3.0741-5.028 3.0921-0.25893 0.0211-0.55993-1.6878-0.85016-4.8267z" fill="#0b0705"/></g></svg>
