<?xml version="1.0" encoding="UTF-8"?>
<!-- Created with Inkscape (http://www.inkscape.org/) -->
<svg width="210mm" height="297mm" version="1.1" viewBox="0 0 210 297" xml:space="preserve" xmlns="http://www.w3.org/2000/svg"><path d="m105.13 247.74-1.554 0.17844-4.4184-2.2998-3.8506-2.3314-14.362-7.8152-15.232-8.2458-1.0603-1.2891-0.01385-1.7426-0.01385-1.7426h-2.205l-4.1056 1.9646-13.492 7.3288-9.2593 5.0578h-2.2835l-10.653-6.0462-20.02-10.806-1.7288-1.6107 0.46319-0.71186 0.46319-0.71185 4.5277-2.4602 13.062-7.1755h2.6104l1.0694 0.66012 1.0694 0.66013 0.70375-0.25443 0.70375-0.25442-0.31606-1.5333-0.31606-1.5333 0.07274-43.258 0.07274-43.258 1.9147-1.7107 18.714-10.107 6.093-3.4396 3.9169-1.8544 0.66502-0.54847 0.66502-0.54846 6.4067-3.3179 2.7083 4e-3 2.428 1.1932 0.92274-2.2233 0.20702-14.351 0.20703-14.351 0.15043-0.4616 0.15043-0.46162 5.1481-2.7951 5.1481-2.7949 12.621-6.9489 5.2225-2.7931 3.9169-2.3508 2.366-0.40119 0.25695 1.3031 0.25698 1.3031-0.13432 9.7838-0.13433 9.7838-2.7243 2.164 0.35375 0.88395 0.35376 0.88394 2.5758 0.533 2.1142 1.279 2.1142 1.279 16.538 9.0043 8.7042 4.6794 8.269 4.4816 11.751 6.4459 5.6577 3.0008 8.269 4.5061 14.797 8.0674 0.31974 0.43953 0.31976 0.43951v41.823l-0.31976 0.43993-0.31974 0.43993-0.76161 0.26477-0.76162 0.26474v3.1526l1.1968 1.0578 1.1968 1.0578 4.7873 2.8417 14.362 7.7969 1.8042 0.86163 1.8042 0.86165 0.69823 0.65783 0.69821 0.65782v36.87l-1.287 0.46531-2.947-1.6152-2.947-1.6152-12.186-6.7651-3.0465-2.7072-1.9276-0.54519-2.4245 1.6231-19.149 10.424-19.149 10.429-16.973 9.2723-7.3986 4.0836-5.6577 2.9995-6.9019 3.9554zm-0.77073-1.1214 1.2184 0.0252 2.7857-1.3408 7.3986-4.1233 3.4817-1.9152 3.4817-1.9151 9.5746-5.1768 6.093-3.3008 6.5282-3.6892 8.7042-4.667 8.269-4.5197 16.103-8.8077 4.5697-2.446 0.23879-0.36402 0.23879-0.36401 0.0877-10.559 0.0877-10.559 1.4711-0.26727 10.062 5.5612v6.3121l-1.088 0.38708-2.2646-1.1772-2.2646-1.1772-0.12903 6.836-0.12904 6.836 3.0465 1.933 14.54 8.1738 1.3545 0.48968-0.11347-17.774-0.11346-17.774-4.0981-2.4716-3.1439-1.6401-3.1438-1.6401-3.1307-1.6401-8.6793-4.8579-3.6945-2.7788-0.34693 0.20202-0.34695 0.20202-10.409-5.6804-0.21759 18.006-0.21761 18.006-0.21762 0.18382-0.2176 0.1838-48.744 26.487-15.514 8.4757-1.8941-0.0252-9.5746-5.2217-0.125-0.76065-0.125-0.76067 13.306-7.1744 50.92-27.706 0.22646-36.541-32.432-17.506-5.3926-3.0847-0.0335 17.589-0.0335 17.589 1.1074 0.90648 11.114 6.062 4.7711 2.5718v-13.977l-3.5047-1.8696-0.46102-1.6743 0.13322-2.4391 0.13323-2.4391 0.73554-0.13184 0.73553-0.13181 10.062 5.5612v22.36l-3.2641 1.9551-20.455 11.097-33.076 17.99-20.648 11.203h-1.3302v0.68349l6.3106 3.2848 6.5282 3.5243 8.269 4.5243 6.9634 3.8813 1.7408 0.88804 1.7408 0.88806 5.2225 3.187 1.2184 0.0252zm-69.329-10.969 0.65282-0.21941 8.269-4.5089 13.492-7.3471 5.0445-2.2721-0.97717-0.30687 10.482-5.6795-0.22878-0.21554-0.22878-0.21555-32.371-17.664-0.11119-35.739-0.11119-35.739 1.1992-0.77 1.1992-0.76999 7.946-4.2595h1.4062l0.11122 35.291 0.11122 35.291 33.057 18.048 2.6644-1.1971 25.208-13.706 9.893-5.3703-0.59437-0.33723-0.59437-0.33724-31.278-17.103-11.627 6.3796-5.0816 2.632 12.638 6.8352h0.70002l3.2325-1.7969 5.5215 2.7794v1.7204l-9.4687 5.0877-2.0644-0.014-19.149-10.502v-85.432l-0.5692 6.1e-5 -5.5238 2.9409-0.56851 0.44407-0.56851 0.44406-8.0024 4.2149-13.927 7.6513-3.9169 2.1222-3.9169 2.1222-0.5376 0.99853-0.5376 0.99856-0.0064 42.065-0.0065 42.065 2.3937 1.0086 16.756 9.1515v1.352l-0.54402 0.41647-0.54401 0.41646-8.4791 4.5979h-1.8601l-2.3378-1.2602-2.3378-1.2602v-1.5661l4.4642-2.1313-7.7283-4.1155-0.43521-0.47129-0.43521-0.47131-2.1163-0.93967-2.1163-0.93969-8.7167 4.7496-9.4862 4.9204 0.033472 0.41003 0.033472 0.41004 20.192 10.849 1.3056 0.77353 1.3056 0.77354 7.8126 4.4148 0.66344 0.25078 0.66344 0.25079 0.65282-0.21941zm69.479-4.2059 0.063 0.0285 10.319-5.6684 17.857-9.7077 36.307-19.681 0.0105-18.362 0.0105-18.362 0.59641-0.21563 0.59643-0.21562 8.1642 4.6562 1.0901 0.7269 1.0901 0.72692 9e-3 -1.904 9e-3 -1.9039 0.3433-0.67169 0.34328-0.67171-17.682-9.6411-13.056-7.1154-20.455-11.132-25.242-13.747-0.87043 0.0272-13.056 7.1581-5.3927 2.9347-0.13252 5.0517-0.13253 5.0517 0.17937-8.3e-4 0.17937-8.2e-4 3.7758-2.0847 0.0067-1.7253 0.0067-1.7254 0.31974-0.44668 0.31974-0.44667 13.56-7.5123h1.4549v20.431l-5.8754 3.0881-28.108 15.434h-1.7041l0.0067-21.014 0.0067-21.014 0.31974-0.43658 0.31974-0.43657 8.269-4.4213 25.122-13.772h1.2679l21.483 11.75 29.159 15.838 13.056 7.1488 0.12279-4.9309 0.12278-4.9309-0.34038-0.30752-0.34039-0.3075-62.235-33.821-0.87043-0.52284-0.87043-0.52285-4.7873 2.7513-28.679 15.673-0.56657-0.20483-0.56657-0.20484v-8.5693l-0.52834-1.2972h-1.675l-0.25051-0.61506-0.25051-0.61505h-1.6477v83.885l19.132 10.472 9.5655-5.1457-4.4037-2.3954-1.6525 0.87502-1.6525 0.87501h-1.0445l-13.887-7.5168 0.1268-0.58578 0.12679-0.58579 9.1394-4.9146 3.9922-2.2192 3.9922-2.2192h1.4053l17.593 9.5849 15.668 8.489 0.13032 0.54792 0.13032 0.54793-16.363 8.8554-22.392 12.158-1.1091-0.0272-33.511-18.339-0.11123-35.1-0.11124-35.1-0.64796 0.0372-9.1394 5.1289-0.11125 34.943-0.11125 34.943 1.8521 1.0366 1.8521 1.0366 30.03 16.337 0.13321 0.59036 0.1332 0.59037-8.7687 4.4434 0.9144 0.77963 0.9144 0.77964-0.15774 1.5584-0.15774 1.5584 0.44799-0.11516 0.44799-0.11511 12.621-7.0478 35.252-19.134 19.585-10.658 9.1394-5.0217 0.11594-10.442 0.11594-10.442-8.9014-4.91-0.34375-0.13668-0.34376-0.13669 6e-3 4.7837 3.475 1.8696v15.967h-1.2807l-8.7169-4.7897-8.7167-4.7897v-37.116l0.82591-0.48091 38.996 21.196 0.11316 18.71 0.11319 18.71-1.0968 0.91428-20.02 10.871-40.91 22.219-2.3937 1.02 0.014 0.48342 9.3431 5.0684 0.0631 0.0285zm-41.191-10.222h0.58028l-0.29014-0.27336-0.29014-0.27334-0.29014 0.27334-0.29014 0.27336zm1.088-0.41003h0.2176v-0.41003h-0.43521v0.41003zm-29.919-0.42178 0.1102 0.0118 9.6623-5.2734-4.2865-2.0465-13.144-7.3496 0.06385 1.2868 0.06385 1.2868-0.31098 0.82126-0.31098 0.82125 8.2594 4.3403v1.4626l-2.1761 0.96024-2.1761 0.96023 0.0034 0.47488 4.131 2.2316 0.1102 0.0118zm153.95-15.159h0.2176v-0.41004h-0.43522v0.41004zm-1.2955-1.8451h1.0779v-12.096h1.5668l0.41345 0.34441 0.41344 0.34442 1.632 0.91911 1.632 0.91913v-4.8005l-8.8871-4.9021-0.68753-0.27336v18.804l1.7611 0.74037zm-111.53-43.545 4.8961-2.6854 13.056-7.1273 10.227-5.5898v-17.933h-0.33604l-6.2513 3.4308-6.2514 3.4308-0.13053 2.0771-0.13053 2.0771-4.7307 2.5154h-1.754l-0.03446-0.71756-0.03446-0.71755 0.06172-5.1254 0.06171-5.1254 0.51677-0.47217 0.51677-0.47216 18.105-9.9215h2.1014l8.0822 4.3852 17.844 9.7037 18.714 10.187 14.144 7.7066 14.58 7.8826 4.1676 2.4737 0.25972-0.24471 0.25973-0.24469-0.0812-20.207-0.0812-20.207-1.0536-1.0058-13.046-7.1058-16.973-9.1911-8.7042-4.7661-14.18-7.6408-4.0079-2.2132-4.0079-2.2132-12.621-6.79-3.827-2.4544-1.8308 1.0871-15.232 8.3471-2.9834 1.4451-0.57556-0.74158-0.57556-0.74159v-9.7379l0.42529-0.74869 0.4253-0.74869 4.8975-2.6041 1.2153 0.43936v4.9031l11.356-6.1478 1.408-0.50906-0.32127 0.58222-0.32128 0.58222 0.68509-0.79593 0.6851-0.79592v-19.798l-0.57883-0.54533-3.9909 2.1649-10.445 5.7478-9.1394 5.0628-8.9941 4.78-0.76634 1.899-0.12472 14.531-0.12472 14.531 0.31263-0.4742 0.31263-0.47422 0.12258 6.0051 0.12258 6.0051 32.193-17.546h1.853l24.273 13.201 13.927 7.5893 17.844 9.6896 8.104 4.4501 0.4089 1.0132 0.40889 1.0133-6e-3 4.3811-6e-3 4.3811-0.26243 0.92258-0.26241 0.92257h-1.2212l-14.127-7.7065-33.511-18.256-16.38-8.8894-1.899 0.93846-31.553 17.188v40.445zm107.65-1.8742-0.26295 0.24773 0.0344-0.7859 0.0343-0.78589 0.45716 1.0763-0.26294 0.24773zm-0.48055 2.5712h0.2176v-0.41005h-0.4352v0.41005zm-113.08-60.411 0.29014-0.27336-0.29014-0.27336-0.29014-0.27335v1.0934zm16.574-15.681 1.1968-0.74044 13.449-7.2241h0.66573l-0.93438-1.5376-0.93438-1.5376-0.10223-0.13628-0.10234-0.13627-8.2561 4.5779h-1.8271v-4.9204h-0.49781l-3.8543 2.1281v10.267zm15.507-12.885h0.21761l0.26897-0.41003 0.26899-0.41003h-0.43523l-0.53794 0.82006z" stroke-width=".42243"/></svg>
